<svg width="882" height="443" viewBox="0 0 882 443" fill="none" xmlns="http://www.w3.org/2000/svg">
<path d="M773.36 28.92L774.91 41.13L775.85 40.19L777.41 38.64C784.28 31.82 784.32 20.62 777.51 13.75C772.1 8.30001 763.94 7.16001 757.36 10.33C756.85 8.23001 755.81 6.27001 754.23 4.68001C749.09 -0.499989 740.78 0.200011 734.56 6.38001L722.03 18.82L742.91 39.86L773.36 28.92Z" stroke="white" stroke-miterlimit="10"/>
<path d="M461.71 103.67L463.89 104.54C466.88 105.73 470 106.09 473 105.74L468.3 91.72L480.14 86.99L484.54 99.93C486.12 98.26 487.42 96.29 488.32 94.04C491.36 86.42 489 77.94 483.1 72.84C484.94 71.45 486.42 69.59 487.31 67.37C490.2 60.12 485.97 52.28 477.27 48.82L459.75 41.83L438.75 94.52L461.71 103.67Z" stroke="white" stroke-miterlimit="10"/>
<path d="M806.63 158.91C806.77 158.95 806.91 158.99 807.05 159.04C806.91 158.99 806.77 158.95 806.63 158.91Z" stroke="white" stroke-miterlimit="10"/>
<path d="M805.56 158.63C805.71 158.66 805.86 158.7 806 158.74C805.86 158.7 805.71 158.66 805.56 158.63Z" stroke="white" stroke-miterlimit="10"/>
<path d="M804.49 158.41C804.64 158.43 804.79 158.46 804.93 158.49C804.79 158.47 804.64 158.44 804.49 158.41Z" stroke="white" stroke-miterlimit="10"/>
<path d="M800.09 175.02C797.24 170.67 794.39 166.32 791.54 161.97C790.77 162.52 790.03 163.1 789.33 163.69C786.94 165.72 784.79 167.93 782.9 170.29L783.71 173.63L779.67 174.89C779.61 174.99 779.55 175.08 779.49 175.18C776.94 179.41 775.18 183.98 772.56 188.19C769.95 192.39 766.31 196.32 761.07 198.34C758.26 199.43 755.05 199.89 751.82 199.75C755.66 201.84 759.79 203.52 764.12 204.65C773.55 207.11 783.89 206.83 792 203.2C793.61 202.48 795.19 201.58 796 200.23C796.29 199.75 796.45 199.2 796.48 198.64C796.53 197.68 796.16 196.69 795.3 195.98C796.48 195.52 797.63 195.03 798.77 194.51C800.79 193.59 802.75 192.58 804.62 191.48C808.79 189.03 812.61 186.08 815.16 182.45C814.44 180.62 814.05 178.62 814.01 176.68C813.94 173.04 815.02 169.62 816.67 166.82L816.68 166.81C816.58 166.63 816.49 166.44 816.39 166.26C814.84 163.61 812.17 161.29 809.04 159.83C807.73 160.48 803.97 163.27 800.09 175.02Z" stroke="white" stroke-miterlimit="10"/>
<path d="M807.71 159.28C807.83 159.32 807.95 159.37 808.07 159.41C807.95 159.36 807.83 159.32 807.71 159.28Z" stroke="white" stroke-miterlimit="10"/>
<path d="M800.09 175.02C803.97 163.27 807.73 160.48 809.05 159.83C808.73 159.68 808.4 159.54 808.07 159.41C807.95 159.36 807.83 159.32 807.71 159.28C807.49 159.2 807.27 159.12 807.05 159.04C806.91 158.99 806.77 158.95 806.63 158.91C806.42 158.85 806.21 158.79 806 158.73C805.85 158.69 805.71 158.66 805.56 158.62C805.35 158.57 805.14 158.53 804.93 158.49C804.78 158.46 804.63 158.43 804.49 158.41C804.32 158.38 804.16 158.36 803.99 158.34L800.09 175.02Z" stroke="white" stroke-miterlimit="10"/>
<path d="M880.31 35.51L853.95 30.08L853.11 33C853.52 33.62 853.84 34.32 853.99 35.12C854.39 37.18 853.72 39.39 852.35 40.99C851.79 41.64 851.11 42.18 850.35 42.59L846.89 54.65C850.1 58.78 852.82 61.53 852.82 61.53L852.81 61.62C854.55 63.63 856.17 65.84 857.64 68.22C859.46 71.19 861.08 74.48 861.91 78.28C862.74 82.08 862.74 86.46 861.42 90.39C861.38 90.52 861.33 90.65 861.28 90.77C859.91 94.53 857.24 97.7 854.29 98.4C852.75 98.76 851.18 98.34 849.95 97.32C849.59 98.83 849.12 100.32 848.55 101.77C847.08 105.53 844.91 109.03 842.19 111.96C838.18 116.27 833.18 119.17 827.87 120.87L819.53 149.9L843.96 155.31C846.39 154.22 848.85 152.75 850.83 150.9L880.31 35.51Z" stroke="white" stroke-miterlimit="10"/>
<path d="M880.09 150.72C881.36 145.71 880.5 140.05 877.21 136.06C871.4 129.02 859.99 130.21 856.16 138.71C854.8 141.73 855.13 145.11 853.3 147.99C852.63 149.05 851.77 150.02 850.81 150.91C848.83 152.75 846.37 154.22 843.94 155.32C843.33 155.59 842.73 155.85 842.13 156.08C836.75 158.12 830.79 158.43 825.17 157.19C824.62 157.07 824.08 156.93 823.54 156.78C823.58 157.13 823.62 157.48 823.66 157.82C823.75 158.46 823.85 159.1 823.97 159.73C825.77 168.98 831.41 177.4 839.39 182.73C844.71 186.29 851.27 188.5 857.76 187.63C863.78 186.82 875.89 179.38 872.49 171.85C870.17 166.72 861.78 170.04 857.41 170.71C855.21 171.05 852.98 171.18 850.76 171.11C858.31 170.93 865.83 168.28 871.62 163.41C875.6 160.09 878.82 155.72 880.09 150.72Z" stroke="white" stroke-miterlimit="10"/>
<path d="M560.4 99.96C563.54 103.72 567.4 107.01 571.63 109.73C573.66 104.3 577.95 99.68 583.39 97.63C588.05 95.87 593.7 96.03 597.59 99.15C600.66 101.62 602.16 106.26 600.73 110C599.34 113.63 597.98 114.74 598.57 118.37C602.49 118.45 606.41 118 610.21 116.87C620.41 113.85 629.01 106.04 632.59 96.55C633.12 95.13 633.53 93.69 633.84 92.22L608.04 84.69L625.1 64.2C621.3 60.38 616.8 57.01 613.05 53.26C610.34 50.28 608.82 47.32 608.08 44.52C607.91 44.52 607.75 44.53 607.59 44.53C606.01 44.51 604.38 44.33 603.03 43.51C601.68 42.69 600.71 41.1 601.03 39.55C601.37 37.94 602.91 36.91 604.39 36.18C605.65 35.56 606.97 35.04 608.31 34.61C608.34 34.52 608.36 34.42 608.39 34.33C608.63 33.58 608.89 32.88 609.16 32.24C609.55 31.33 609.96 30.54 610.33 29.91C610.46 29.71 610.59 29.51 610.72 29.32C610.73 29.3 610.74 29.29 610.74 29.29C613.61 22.86 606.34 24.83 606.26 24.85C594.27 29.47 580.77 31.2 580.77 31.2L580.71 31.29C577.28 31.93 573.83 32.82 570.4 33.97C566.13 35.41 561.83 37.26 557.97 40.09C554.11 42.92 550.68 46.81 549.01 51.18C548.96 51.32 548.91 51.47 548.86 51.61C547.36 55.86 547.73 60.44 550.33 63.01C551.69 64.35 553.69 65.01 555.8 64.92C557.87 64.83 560.05 64.04 561.86 62.48C562.11 62.26 562.35 62.03 562.57 61.79C562.13 63.84 560.99 65.93 559.28 67.4C557.64 68.81 555.69 69.6 553.8 69.8C552.43 74.11 551.98 78.66 552.59 83.06C552.63 83.37 552.7 83.67 552.76 83.98L572.64 85.47L560.4 99.96Z" stroke="white" stroke-miterlimit="10"/>
<path d="M553.77 69.81C554.3 68.14 554.97 66.51 555.77 64.93C554.96 66.5 554.3 68.14 553.77 69.81Z" stroke="white" stroke-miterlimit="10"/>
<path d="M562.54 61.8C562.31 62.04 562.08 62.27 561.83 62.49C560.02 64.05 557.84 64.84 555.77 64.93C554.97 66.51 554.3 68.14 553.77 69.81C555.66 69.61 557.61 68.83 559.25 67.41C560.95 65.94 562.1 63.85 562.54 61.8Z" stroke="white" stroke-miterlimit="10"/>
<path d="M842.18 111.96C844.91 109.03 847.07 105.52 848.54 101.77C847.5 100.77 846.74 99.32 846.5 97.56C846.25 95.72 846.67 93.69 847.5 92C847.51 92.28 847.53 92.55 847.57 92.82C847.84 94.77 848.73 96.33 849.94 97.33C851.18 98.35 852.74 98.77 854.28 98.41C857.23 97.72 859.9 94.55 861.27 90.78C861.32 90.65 861.37 90.53 861.41 90.4C862.73 86.47 862.74 82.09 861.9 78.29C861.07 74.49 859.45 71.2 857.63 68.23C856.16 65.84 854.55 63.64 852.8 61.63L852.81 61.54C852.81 61.54 850.09 58.79 846.88 54.66C844.84 52.03 842.6 48.84 840.72 45.43C840.68 45.38 837.33 40.67 835.63 46.64C835.63 46.64 835.63 46.65 835.62 46.67C835.59 46.87 835.57 47.07 835.54 47.28C835.42 47.9 835.25 48.66 835 49.5C834.83 50.09 834.61 50.71 834.35 51.37C834.02 52.21 833.6 53.09 833.09 53.99C832.93 54.28 832.75 54.57 832.57 54.86C830.49 58.12 827.05 61.38 821.39 63.03C815.69 64.41 809.57 64.69 803.99 66.85C796.04 69.94 789.25 77.18 786.34 85.7C784.18 92.03 784.2 98.93 786.23 104.85C797.15 101.28 808.06 97.7 818.98 94.13L812.31 122.67C812.49 122.68 812.67 122.71 812.85 122.72C817.77 123.04 822.94 122.48 827.83 120.91C833.18 119.17 838.17 116.27 842.18 111.96Z" stroke="white" stroke-miterlimit="10"/>
<path d="M847.57 92.82C847.53 92.55 847.51 92.28 847.5 92C846.67 93.69 846.25 95.73 846.5 97.56C846.74 99.33 847.5 100.78 848.54 101.77C849.11 100.32 849.58 98.83 849.94 97.32C848.73 96.33 847.83 94.76 847.57 92.82Z" stroke="white" stroke-miterlimit="10"/>
<path d="M478.91 153.02C476.77 155.19 475.64 158.34 476 161.37C476.35 164.4 478.2 167.23 480.85 168.72C484.98 171.04 490.63 169.76 493.71 166.16C494.18 165.61 494.59 165.01 494.94 164.37L494.66 154.13C491.24 149.37 483.26 148.63 478.91 153.02Z" stroke="white" stroke-miterlimit="10"/>
<path d="M534 168.93L534.27 168.78C534.26 168.76 534.25 168.74 534.25 168.72L534.28 168.77L555.42 157.19C558.3 155.61 561.23 154.65 564.06 154.22C567.11 149.62 569.65 144.72 570.72 139.35C571.49 135.47 571.43 131.27 569.62 127.75C567.12 122.89 561.49 120.08 556.03 120.24C550.57 120.4 545.41 123.25 541.71 127.26C538.01 131.28 535.67 136.38 534.18 141.63C533.38 144.46 532.83 147.38 532.53 150.33C532.35 152.16 532.26 154 532.29 155.83C531.4 155.11 530.38 154.55 529.25 154.23C529.24 154.23 529.23 154.23 529.22 154.22C524.61 152.96 519.91 155.92 516.54 159.32C511.92 163.98 508.41 169.74 506.39 175.98C505.23 179.56 504.57 183.42 505.46 187.07C505.66 187.87 505.94 188.65 506.3 189.39C506.23 189.4 506.15 189.42 506.08 189.44C502.8 190.25 500.49 193.96 500.43 197.63C500.37 201.31 502.24 204.78 504.84 207.08C506.66 208.69 508.79 209.79 511.04 210.57C512 210.9 512.98 211.18 513.96 211.41C517.36 212.21 520.91 212.53 524.31 211.7C525.24 211.47 526.15 211.15 527.03 210.74C524.47 210.21 522.12 208.07 521.38 205.47C520.83 203.54 521 201.52 521.62 199.62C522.21 197.84 523.2 196.15 524.4 194.71C526.9 191.74 530.22 189.61 533.35 187.32C534.98 186.13 536.55 184.86 538.1 183.57C538.11 181.37 537.62 177.46 535.23 171.21L534 168.93ZM529.06 154.3C529.07 154.3 529.08 154.3 529.09 154.31C530.23 154.59 531.26 155.12 532.17 155.82C532.31 159.39 532.84 162.93 533.78 166.35C530.89 161.9 529.49 157.75 529.06 154.3Z" stroke="white" stroke-miterlimit="10"/>
<path d="M538.14 183.56C539.03 182.82 539.92 182.08 540.78 181.3L540.77 181.29C539.91 182.06 539.03 182.82 538.14 183.56Z" stroke="white" stroke-miterlimit="10"/>
<path d="M760.58 113.23C760.62 113.31 760.67 113.38 760.71 113.45L760.78 113.16C760.71 113.18 760.64 113.21 760.58 113.23Z" stroke="white" stroke-miterlimit="10"/>
<path d="M775.36 137.12C775.47 137.29 775.58 137.46 775.69 137.63L776.98 135.56L775.36 137.12Z" stroke="white" stroke-miterlimit="10"/>
<path d="M786.26 104.82C784.87 105.28 783.48 105.73 782.09 106.19L796.41 116.89L787.2 125.75L790.89 130.56C790.89 130.56 782.33 139.38 779.88 144.12C778.48 141.96 777.08 139.8 775.69 137.64C779.24 143.15 782.82 148.64 786.41 154.12C788.12 156.73 789.83 159.35 791.54 161.96C794.39 166.31 797.24 170.66 800.09 175.01L803.99 158.34L812.34 122.64L819.01 94.1C808.09 97.67 797.18 101.25 786.26 104.82Z" stroke="white" stroke-miterlimit="10"/>
<path d="M790.89 130.56L787.2 125.75L776.99 135.57L775.7 137.64C775.7 137.64 775.7 137.65 775.71 137.65C777.1 139.81 778.5 141.97 779.9 144.13C782.33 139.38 790.89 130.56 790.89 130.56Z" stroke="white" stroke-miterlimit="10"/>
<path d="M787.2 125.74L796.41 116.88L782.09 106.18L765.35 93.67L760.78 113.15L760.71 113.44L753.76 143.07C757.74 144.19 760.84 146.46 762.61 149.37L775.36 137.1L776.98 135.54L787.2 125.74Z" stroke="white" stroke-miterlimit="10"/>
<path d="M814.02 176.68C814.06 178.62 814.45 180.62 815.17 182.45C815.8 184.05 816.66 185.54 817.78 186.73C820.53 189.69 824.6 190.58 827.61 188.91C830.29 187.42 831.98 183.96 831.97 180.25C829.21 178.95 826.66 176.72 824.8 173.83C822.48 170.22 821.32 165.68 821.48 161.41C819.61 162.81 817.98 164.64 816.7 166.8L816.69 166.81C815.03 169.62 813.95 173.04 814.02 176.68Z" stroke="white" stroke-miterlimit="10"/>
<path d="M529.09 154.31C529.08 154.31 529.07 154.31 529.06 154.3C529.5 157.75 530.9 161.9 533.78 166.35C532.84 162.93 532.31 159.39 532.17 155.82C531.25 155.12 530.22 154.59 529.09 154.31Z" stroke="white" stroke-miterlimit="10"/>
<path d="M658.81 66.41C662.69 68.11 667.1 67.19 671.06 65.74C675.98 63.94 680.68 61.37 684.96 58.12C689.24 54.87 693.09 50.96 697.41 47.77C701.73 44.58 706.69 42.08 711.87 42.17C714.65 42.22 717.4 43.05 719.85 44.52C717.98 40.84 715.67 37.45 712.91 34.54C706.89 28.2 698.67 24.27 690.38 24.64C688.73 24.71 687.02 24.98 685.65 26.01C685.16 26.38 684.74 26.87 684.42 27.42C683.86 28.38 683.62 29.52 683.9 30.59H683.89C683.9 30.64 683.92 30.7 683.93 30.75C684.65 33 687.18 33.64 689.32 33.95C689.8 34.02 690.28 34.09 690.76 34.15C684.61 34.98 681.69 32.5 680.39 30.66C678.32 30.77 676.25 30.99 674.19 31.34C668.94 32.24 663.69 33.98 659.37 37.42C655.05 40.86 651.75 46.19 651.34 52.08C650.93 57.98 653.86 64.25 658.81 66.41Z" stroke="white" stroke-miterlimit="10"/>
<path d="M690.76 34.15C690.28 34.08 689.8 34.01 689.32 33.95C687.19 33.65 684.65 33 683.93 30.75C683.91 30.7 683.9 30.64 683.89 30.59C682.72 30.57 681.56 30.6 680.39 30.66C681.69 32.5 684.61 34.98 690.76 34.15Z" stroke="white" stroke-miterlimit="10"/>
<path d="M538 190.1C533.04 191.35 528.57 195.56 528.34 200.67C528.07 206.62 533.17 211.33 538.08 214.7C542.84 217.97 548.08 220.96 553.84 221.43C554.57 221.49 555.31 221.5 556.05 221.46C555.65 208.31 542.09 190.13 541.64 189.52C540.41 189.61 539.19 189.8 538 190.1Z" stroke="white" stroke-miterlimit="10"/>
<path d="M541.65 189.52C542.11 190.13 555.67 208.3 556.06 221.46C558.1 221.35 560.14 220.85 561.98 220.01L545.29 189.54C544.07 189.44 542.85 189.43 541.65 189.52Z" stroke="white" stroke-miterlimit="10"/>
<path d="M742.9 39.86L687.14 59.88L710.64 68.68L722.63 68.05C732.9 67.51 740.94 72.75 742.81 80.73L781.78 95.33L774.9 41.13L773.35 28.92L742.9 39.86Z" stroke="white" stroke-miterlimit="10"/>
<path d="M494.11 134.33L494.66 154.13L494.94 164.37L495.3 177.2L560.39 99.96L572.6 85.48L552.72 83.99L530.88 82.35C528.8 83.02 526.6 83.31 524.5 83.08C522.76 82.89 521.12 82.35 519.71 81.51L492.59 79.47L493.92 127.54L495.94 133.47L494.11 134.33Z" stroke="white" stroke-miterlimit="10"/>
<path d="M611.19 143.45C603.97 145.14 598.6 144.9 591.48 143.29C586.31 142.12 577.31 140.58 575.36 147.63C574.43 150.97 576.62 154.59 579.67 156.25C582.72 157.91 586.38 157.98 589.83 157.59C596.66 156.81 603.23 154.19 608.87 150.28C612.57 147.7 618.87 141.65 611.19 143.45Z" stroke="white" stroke-miterlimit="10"/>
<path d="M600.73 110.01C602.16 106.27 600.66 101.63 597.59 99.16C593.71 96.04 588.05 95.87 583.39 97.64C577.95 99.7 573.66 104.32 571.63 109.74C570.66 112.32 570.2 115.08 570.38 117.83C570.75 123.57 573.6 128.97 577.59 133.1C587.25 143.1 603.99 145.3 615.91 138.16C607.75 135.38 601.1 128.37 598.91 120.01C598.75 119.41 598.64 118.87 598.56 118.37C597.98 114.75 599.34 113.64 600.73 110.01Z" stroke="white" stroke-miterlimit="10"/>
<path d="M444.09 146.69C447.38 150.67 448.24 156.34 446.97 161.35C446.75 162.2 446.47 163.02 446.14 163.83L450.1 164.44C459.04 165.82 464.72 172.29 463.57 179.74C463.22 182.03 462.23 184.09 460.79 185.8C463.72 187.35 466.14 189.67 467.84 192.44L476.77 185.85L481.22 191.8L470.47 199.68C470.56 200.6 470.58 201.53 470.5 202.5L470.49 202.51C470.46 203.21 470.41 203.92 470.3 204.63C469.85 207.57 468.69 210.22 467.05 212.48C467.05 214.31 466.96 216.14 466.74 217.96C465.92 224.79 463.49 231.4 459.81 237.22C464.33 235.04 468.75 232.67 472.95 229.88C480.74 224.7 487.79 217.92 491.9 209.62C496.01 201.32 496.82 191.37 492.66 183.86C489.83 178.74 484.93 175.07 479.45 172.86C478.28 172.39 477.07 171.98 475.83 171.64C471.9 170.56 467.7 170.18 463.53 170.55C464.87 168.94 466.19 167.31 467.49 165.66C470.19 162.23 472.85 158.67 475.05 154.92C477 151.6 478.59 148.12 479.53 144.44C480.54 140.49 480.75 136.24 479.18 132.72C477.02 127.87 471.62 125.16 466.21 125.46C465.49 125.5 464.77 125.59 464.06 125.72C464.18 125.63 464.29 125.55 464.41 125.46C467.72 122.88 468.89 117.91 467.48 114.03C465.69 109.13 460.72 105.91 455.58 104.97C446.75 103.34 437.11 108.04 432.97 116.01C430.19 121.35 429.81 127.74 431.15 133.6C431.83 136.6 433 139.46 434.53 142.11C438.05 142.16 441.59 143.66 444.09 146.69Z" stroke="white" stroke-miterlimit="10"/>
<path d="M732.69 39.32L715.46 17.51L709.31 23.38L726.4 44.98L732.69 39.32Z" stroke="white" stroke-miterlimit="10"/>
<path d="M782.91 170.29L777.19 146.61L769.15 149.37L775.63 176.14L779.67 174.88L783.72 173.63L782.91 170.29Z" stroke="white" stroke-miterlimit="10"/>
<path d="M852.35 40.99C853.72 39.39 854.39 37.18 853.99 35.12C853.83 34.32 853.52 33.62 853.11 33C850.85 29.62 845.31 29.05 842.31 32.07C840.86 33.54 840.09 35.68 840.33 37.73C840.57 39.78 841.82 41.7 843.62 42.72C845.67 43.87 848.28 43.71 850.35 42.58C851.11 42.17 851.79 41.64 852.35 40.99Z" stroke="white" stroke-miterlimit="10"/>
<path d="M601.02 39.55C600.7 41.09 601.67 42.69 603.02 43.51C604.37 44.33 606 44.52 607.58 44.53C607.75 44.53 607.91 44.52 608.07 44.52C608.36 44.52 608.65 44.51 608.94 44.5C610.52 44.6 613.02 45.22 613.91 48.03C614.11 48.94 614.54 49.81 615.11 50.55C616.12 51.84 617.53 52.77 619.02 53.47C621.11 54.45 623.44 55.03 625.73 54.77C628.02 54.51 630.27 53.32 631.5 51.37C633.09 48.86 632.81 45.59 633.91 42.83C634.85 40.46 636.83 38.53 639.22 37.66C640.95 37.03 642.82 36.94 644.65 36.78C646.48 36.62 648.36 36.36 649.96 35.45C651.55 34.54 652.81 32.81 652.67 30.98C652.49 28.72 650.33 27.12 648.19 26.39C643.75 24.87 638.55 25.85 634.97 28.88C632.83 30.7 631.11 33.25 628.42 34.04C626.32 34.65 624.08 34.03 621.92 33.66C617.39 32.88 612.69 33.23 608.31 34.62C606.97 35.05 605.65 35.56 604.39 36.19C602.9 36.91 601.35 37.94 601.02 39.55Z" stroke="white" stroke-miterlimit="10"/>
<path d="M494.56 75.09C495.78 75.95 497.47 75.47 498.8 74.81C499.89 74.27 500.92 73.62 501.87 72.88C503.88 71.52 505.25 71.88 505.25 71.88C505.26 71.88 505.26 71.88 505.27 71.88C505.34 71.89 505.41 71.91 505.48 71.91C507.81 72.23 510.24 71.69 512.24 70.46C514.55 69.04 516.28 66.72 517.09 64.13C517.62 62.45 517.71 60.44 516.59 59.08C515.45 57.7 513.42 57.43 511.64 57.62C508.44 57.97 505.44 59.6 503.28 61.97C502.4 62.93 501.4 64.2 500.81 65.53C498.07 66.52 494.93 68.64 493.79 71.21C493.22 72.5 493.38 74.26 494.56 75.09Z" stroke="white" stroke-miterlimit="10"/>
<path d="M530.88 82.35C531.83 82.04 532.76 81.66 533.65 81.19C535.08 80.43 536.43 79.45 537.39 78.24C538.94 78.14 540.47 77.86 541.95 77.38C543.89 76.75 545.75 75.79 547.16 74.33C548.57 72.86 549.48 70.84 549.3 68.81C549.07 66.14 547.02 63.89 544.62 62.7C544.4 62.59 544.17 62.49 543.94 62.39C544.25 61.4 544.33 60.35 544.09 59.3C543.34 55.88 539.72 53.96 536.36 52.97C534.1 52.31 531.74 51.85 529.39 52.02C527.04 52.19 524.68 53.03 522.99 54.68C520.56 57.04 519.54 61.74 520.37 65.64C518.93 66.62 517.7 67.83 516.9 69.1C514.88 72.3 514.91 76.31 516.99 79.11C517.7 80.07 518.64 80.87 519.71 81.51C521.12 82.35 522.77 82.89 524.5 83.08C526.61 83.3 528.8 83.02 530.88 82.35Z" stroke="white" stroke-miterlimit="10"/>
<path d="M633.84 92.23L645.8 95.72L661.58 81.44L640.99 45.1L625.09 64.2L608.04 84.69L633.84 92.23Z" stroke="white" stroke-miterlimit="10"/>
<path d="M610.13 128.01L626.08 145.68L669.33 107.85L664.94 111.69C664.75 111.06 664.59 110.41 664.46 109.76C663.61 105.41 664.12 100.68 666.47 96.71C668.72 92.92 672.69 90.13 677.06 88.92C680.72 86.69 685.18 85.67 689.34 86.4C690.49 86.6 691.62 86.95 692.68 87.42L699.14 81.77L682.03 62.92L661.57 81.44L645.8 95.72L610.13 128.01Z" stroke="white" stroke-miterlimit="10"/>
<path d="M671.29 94.63C672.67 92.31 674.69 90.37 677.06 88.93C672.7 90.14 668.73 92.93 666.47 96.72C664.12 100.68 663.61 105.42 664.46 109.77C664.59 110.42 664.75 111.06 664.94 111.7L669.33 107.86C669.32 107.8 669.3 107.74 669.29 107.68C668.43 103.33 668.94 98.59 671.29 94.63Z" stroke="white" stroke-miterlimit="10"/>
<path d="M677.06 88.92C674.7 90.36 672.67 92.3 671.29 94.62C668.94 98.58 668.43 103.32 669.28 107.67C669.29 107.73 669.31 107.79 669.32 107.85C671.46 118.29 681.81 126.36 693.13 126.39C688.82 121.28 687.47 113.95 689.77 107.51C691.15 103.65 692.6 103.69 695.55 101.58C698.23 99.66 699.31 95.98 698.33 93.1C697.45 90.52 695.29 88.58 692.68 87.42C691.62 86.95 690.49 86.6 689.34 86.4C685.18 85.68 680.71 86.7 677.06 88.92Z" stroke="white" stroke-miterlimit="10"/>
<path d="M509.44 214.89L509.43 214.88C508.94 214.7 507.55 214.21 507.09 214.05C506.99 214.01 506.9 213.96 506.8 213.92C506.14 213.52 505.41 213.18 504.81 212.93C503.57 212.25 502.36 211.49 501.23 210.63C500.51 210.08 499.8 209.49 498.98 209.11C498.16 208.73 497.19 208.58 496.36 208.94C495.05 209.51 494.49 211.22 494.76 212.66C495.03 214.1 495.93 215.32 496.85 216.43C497.81 217.59 498.84 218.69 499.9 219.75C500.02 220.21 500.13 220.69 500.22 221.24C500.22 221.24 502.87 232.32 533.66 237.7H533.67C535.16 238 536.67 238.13 538.18 238.01C541.37 237.76 544.57 236.35 546.59 233.79C552.67 226.09 544 221.04 537.99 218.17C534.82 216.66 531.34 215.58 527.87 216.01C525.95 216.25 524.05 217.03 522.54 218.26C517.78 221.32 515.96 219.77 515.5 219.21C515.46 219.15 515.42 219.1 515.38 219.04C514 217.12 511.56 215.61 509.44 214.89Z" stroke="white" stroke-miterlimit="10"/>
<path d="M819.27 28.85C822.19 31.36 826 32.85 829.85 32.83C833.18 32.81 836.52 31.64 839.08 29.52C839.16 29.46 839.23 29.39 839.31 29.32C839.32 29.31 839.33 29.31 839.34 29.3C839.34 29.3 840.72 27.85 844.16 27.98C845.87 28.16 847.6 28.17 849.31 28.01C851.41 27.81 853.8 27.12 854.62 25.17C855.41 23.3 854.29 21.06 852.61 19.92C849.31 17.69 843.95 17.48 839.91 18.34C838.21 17.18 836.06 16.41 834.28 15.9C829.91 14.67 825.08 14.96 820.96 16.93C818.67 18.03 816.43 19.87 816.09 22.39C815.76 24.87 817.37 27.22 819.27 28.85Z" stroke="white" stroke-miterlimit="10"/>
<path d="M785.64 46.86C785.44 47.15 785.24 47.44 785.05 47.74C783.05 50.97 782.26 55.22 783.99 58.61C785.3 61.18 787.91 62.94 790.71 63.65C793.51 64.36 796.47 64.12 799.27 63.42C801.41 62.89 803.47 62.08 805.41 61.05C807.47 61.79 809.82 61.96 812.12 61.8C816.61 61.48 821.1 59.91 824.54 57.23C827.98 54.54 830.3 50.73 830.62 46.83C831.02 41.9 828.06 37.04 823.23 34.71C821.31 33.78 818.93 33.25 816.46 33.15C814.54 27.84 809.79 22.94 805.09 21.91C801.82 21.2 798.35 21.95 795.4 23.5C792.44 25.05 789.94 27.36 787.72 29.86C784.42 33.56 781.5 38.59 783.15 43.26C783.66 44.7 784.53 45.9 785.64 46.86Z" stroke="white" stroke-miterlimit="10"/>
<path d="M753.76 143.09C752.92 142.85 752.04 142.66 751.12 142.53L733.92 140.11L731.34 158.38L749.24 184.22L728.16 180.99L728.68 177.32L749.25 184.22L728.68 177.32L726.63 191.83L749.19 195.01L751.33 195.31C760.76 196.64 769.56 190.01 770.89 180.58C771.94 173.1 767.98 166.02 761.59 162.75C762.94 161.1 763.85 159.12 764.16 156.93C764.55 154.19 763.96 151.61 762.62 149.39C760.84 146.47 757.74 144.21 753.76 143.09Z" stroke="white" stroke-miterlimit="10"/>
<path d="M535.26 171.22C537.65 177.47 538.15 181.38 538.13 183.58C538.14 183.58 538.14 183.57 538.15 183.57C539.04 182.83 539.92 182.07 540.78 181.3L535.26 171.22Z" stroke="white" stroke-miterlimit="10"/>
<path d="M534.27 168.78L534.25 168.72C534.26 168.74 534.27 168.76 534.27 168.78Z" stroke="white" stroke-miterlimit="10"/>
<path d="M468.3 91.72L473 105.74L484.17 139.01L494.11 134.33L495.94 133.47L493.93 127.54L484.54 99.94L480.13 86.99L468.3 91.72Z" stroke="white" stroke-miterlimit="10"/>
<path d="M731.34 158.37L718.62 140.01L708.95 151.16L711.06 152.9L705.42 155.23L695.82 166.3L728.67 177.31L749.24 184.21L731.34 158.37Z" stroke="white" stroke-miterlimit="10"/>
<path d="M722.63 68.05L710.64 68.68L699.66 69.26L703.3 138.33L733.42 136.74L736.28 136.59C748.87 135.93 758.63 125.08 757.97 112.49C757.44 102.5 750.5 94.31 741.36 91.68C742.69 89.2 743.38 86.39 743.22 83.47C743.17 82.52 743.02 81.62 742.81 80.73C740.94 72.75 732.9 67.51 722.63 68.05Z" stroke="white" stroke-miterlimit="10"/>
<path d="M591.85 190.89L597.14 172.48C593.07 170.91 588.6 170.43 584.23 171.17C584.36 168.18 583.72 165.18 582.23 162.46C578.69 156 571.71 153.08 564.07 154.22C561.23 154.64 558.31 155.61 555.43 157.19L534.29 168.77H534.28L534.01 168.92L535.26 171.21L540.78 181.29L540.79 181.3L545.29 189.52L561.98 220L569.29 233.34L597.38 217.95L600.05 216.49C611.79 210.06 616.14 195.19 609.7 183.44C609.24 182.59 608.72 181.8 608.17 181.03L601.23 193.91L591.85 190.89Z" stroke="white" stroke-miterlimit="10"/>
<path d="M601.25 158.18L597.14 172.48L591.85 190.89L601.23 193.91L605.85 178.03L610.84 160.88L601.25 158.18Z" stroke="white" stroke-miterlimit="10"/>
<path d="M676.11 216.04C678.23 216.83 680.34 218.49 680.46 220.75C680.56 222.59 679.25 224.27 677.63 225.15C676.01 226.03 674.13 226.23 672.29 226.34C670.45 226.45 668.58 226.49 666.84 227.07C665.79 227.42 664.82 227.98 663.97 228.69L686.94 238.94L689.47 240.07C700.63 245.05 713.84 240 718.82 228.84C722.77 219.98 720.39 209.85 713.67 203.55C715.91 201.99 717.75 199.87 718.9 197.29C722.66 188.87 718.04 179.41 707.93 174.9L687.57 165.81L681.45 179.51C681.88 180.17 682.22 180.92 682.38 181.77C682.81 184 682.09 186.39 680.61 188.11C679.55 189.34 678.08 190.2 676.5 190.59L664.76 216.9C668.2 215.03 672.44 214.67 676.11 216.04Z" stroke="white" stroke-miterlimit="10"/>
<path d="M680.62 188.1C682.1 186.38 682.83 183.99 682.39 181.76C682.22 180.91 681.89 180.16 681.46 179.5C679.04 175.81 673.02 175.18 669.77 178.47C668.2 180.06 667.38 182.37 667.63 184.59C667.89 186.81 669.24 188.88 671.19 189.98C672.8 190.88 674.72 191.04 676.51 190.59C678.09 190.19 679.56 189.33 680.62 188.1Z" stroke="white" stroke-miterlimit="10"/>
<path d="M708.95 151.16L664.48 114.41L647.71 150.88C650.24 150.56 652.8 150.76 655.18 151.64C659.47 153.24 662.67 156.87 664.5 160.91C665.98 164.16 666.62 167.74 666.48 171.29L705.43 155.22L711.07 152.89L708.95 151.16Z" stroke="white" stroke-miterlimit="10"/>
<path d="M664.49 160.91C662.65 156.87 659.46 153.23 655.17 151.64C652.79 150.76 650.24 150.56 647.7 150.88C647.28 150.93 646.86 151 646.44 151.08C645.24 149.42 643.53 147.97 641.35 146.88C636.65 144.54 631.07 144.96 626.31 146.87C617.6 150.54 611.73 160.07 612.38 169.5C612.66 173.59 614.57 178.09 618.45 179.34C618.23 180.38 618.12 181.43 618.14 182.47C617.13 183.18 616.34 184.12 615.92 185.41C615.17 187.69 615.61 190.19 616.35 192.47C619.84 203.3 630.36 211.47 641.72 212.17C645.18 212.38 648.67 211.96 652.02 211.08C655.66 210.12 659.29 208.54 661.77 205.7C666.46 200.34 665.62 191.57 661.08 186.08C660.99 185.97 660.88 185.86 660.79 185.75C661.42 185.03 662.01 184.29 662.52 183.52C664.97 179.87 666.3 175.59 666.47 171.29C666.61 167.74 665.97 164.16 664.49 160.91Z" stroke="white" stroke-miterlimit="10"/>
<path d="M728.15 180.98L749.24 184.21L728.67 177.31L728.15 180.98Z" stroke="white" stroke-miterlimit="10"/>
<path d="M766.19 220.34C763.96 214.06 757.97 210.15 751.63 210.2C752.01 208.36 751.91 206.44 751.26 204.6C749.14 198.63 742.35 196.11 735.18 198.66L720.74 203.79L734.21 241.7L763.97 234.65C766.95 230.68 767.97 225.34 766.19 220.34Z" stroke="white" stroke-miterlimit="10"/>
<path d="M327 227.36C324.8 221.16 318.89 217.3 312.64 217.35C313.01 215.54 312.92 213.64 312.28 211.83C310.19 205.94 303.49 203.45 296.42 205.97L282.17 211.03L296.26 250.68L321.46 244.71C326.83 240.92 329.3 233.85 327 227.36Z" stroke="white" stroke-miterlimit="10"/>
<path d="M506.49 272.06L510.54 285.12C512.16 283.49 513.52 281.56 514.48 279.33C517.72 271.79 515.59 263.25 509.83 258C511.71 256.66 513.24 254.84 514.18 252.64C517.26 245.47 513.25 237.52 504.64 233.82L487.31 226.36L464.89 278.46L487.61 288.24L489.77 289.17C492.73 290.44 495.84 290.89 498.85 290.61L494.53 276.47L506.49 272.06Z" stroke="white" stroke-miterlimit="10"/>
<path d="M825.56 351.96C820.75 352.09 816.77 354.47 813.5 357.1C809.44 360.36 806.01 364.15 803.35 368.32C800.69 372.48 798.8 377 796.07 381.13C793.34 385.26 789.6 389.09 784.31 390.97C781.47 391.98 778.25 392.36 775.02 392.13C778.81 394.32 782.89 396.11 787.18 397.36C796.54 400.08 806.88 400.07 815.09 396.66C816.72 395.98 818.32 395.13 819.17 393.8C819.47 393.33 819.65 392.78 819.69 392.23C819.76 391.27 819.42 390.27 818.58 389.54C819.77 389.11 820.94 388.65 822.08 388.17C824.13 387.3 826.11 386.35 828.01 385.3C832.87 382.62 837.28 379.27 839.88 374.94C842.48 370.61 843.08 365.18 840.46 360.4C837.87 355.62 831.68 351.8 825.56 351.96Z" stroke="white" stroke-miterlimit="10"/>
<path d="M636.93 220.84C637.35 219.94 637.78 219.17 638.16 218.54C638.29 218.34 638.43 218.15 638.56 217.96C638.57 217.94 638.58 217.93 638.58 217.93C641.62 211.58 634.3 213.36 634.22 213.37C622.11 217.66 608.57 219.02 608.57 219.02L608.5 219.11C605.05 219.65 601.58 220.45 598.12 221.51C593.81 222.83 589.47 224.57 585.53 227.29C581.59 230.01 578.07 233.81 576.27 238.13C576.21 238.27 576.16 238.41 576.11 238.56C574.5 242.77 574.74 247.36 577.27 249.99C578.59 251.37 580.57 252.08 582.69 252.04C584.76 252.01 586.96 251.27 588.81 249.77C589.07 249.56 589.31 249.34 589.54 249.1C589.05 251.14 587.84 253.2 586.1 254.62C584.42 255.99 582.45 256.72 580.56 256.87C581.14 255.22 581.84 253.6 582.69 252.05C581.85 253.6 581.14 255.22 580.56 256.87C579.07 261.14 578.5 265.68 578.99 270.1C579.02 270.41 579.09 270.72 579.13 271.02L598.96 273.05L586.37 287.2C589.41 291.05 593.17 294.44 597.33 297.27C599.51 291.9 603.92 287.4 609.42 285.49C614.13 283.85 619.77 284.17 623.57 287.4C626.58 289.95 627.95 294.63 626.42 298.33C624.94 301.92 623.54 302.99 624.03 306.63C627.94 306.82 631.87 306.47 635.71 305.45C645.99 302.71 654.8 295.13 658.63 285.74C659.2 284.34 659.65 282.9 659.99 281.45L634.41 273.22L652.01 253.2C648.31 249.27 643.91 245.79 640.26 241.94C637.63 238.89 636.19 235.88 635.52 233.07C635.35 233.07 635.19 233.07 635.02 233.07C633.45 233.01 631.82 232.78 630.49 231.92C629.17 231.06 628.23 229.44 628.6 227.91C628.98 226.31 630.55 225.32 632.05 224.64C633.33 224.05 634.66 223.57 636.01 223.18C636.04 223.09 636.06 222.99 636.09 222.9C636.36 222.15 636.64 221.46 636.93 220.84Z" stroke="white" stroke-miterlimit="10"/>
<path d="M586.1 254.63C587.84 253.21 589.05 251.15 589.54 249.11C589.31 249.34 589.06 249.57 588.81 249.78C586.96 251.29 584.76 252.02 582.69 252.05C581.85 253.6 581.14 255.22 580.56 256.87C582.46 256.73 584.42 255.99 586.1 254.63Z" stroke="white" stroke-miterlimit="10"/>
<path d="M503.48 338.03C501.28 340.14 500.07 343.26 500.34 346.29C500.61 349.33 502.38 352.2 504.99 353.77C509.05 356.2 514.74 355.07 517.91 351.56C518.4 351.02 518.82 350.43 519.19 349.81L519.18 339.57C515.9 334.71 507.94 333.76 503.48 338.03Z" stroke="white" stroke-miterlimit="10"/>
<path d="M561.84 370.18C561.91 367.98 561.53 364.06 559.31 357.75L558.12 355.43L558.4 355.29C558.39 355.27 558.39 355.25 558.38 355.23L558.41 355.28L579.86 344.27C582.78 342.77 585.73 341.88 588.58 341.54C591.75 337.03 594.43 332.2 595.64 326.86C596.52 323 596.57 318.8 594.85 315.23C592.49 310.31 586.93 307.34 581.47 307.35C576.01 307.37 570.77 310.07 566.97 313.98C563.17 317.9 560.68 322.94 559.05 328.15C558.17 330.96 557.54 333.86 557.17 336.8C556.94 338.62 556.81 340.46 556.78 342.3C556.7 342.23 556.62 342.17 556.54 342.11C556.59 345.66 557.02 349.19 557.86 352.6C555.13 348.12 553.84 343.98 553.48 340.54C548.99 339.35 544.33 342.12 540.95 345.36C536.2 349.89 532.54 355.55 530.35 361.74C529.1 365.28 528.32 369.13 529.12 372.8C529.29 373.6 529.56 374.39 529.9 375.15C529.83 375.16 529.75 375.17 529.68 375.19C526.38 375.91 523.97 379.55 523.81 383.23C523.65 386.9 525.43 390.43 527.96 392.8C529.73 394.46 531.84 395.61 534.06 396.45C535.01 396.81 535.98 397.11 536.95 397.37C540.32 398.26 543.87 398.68 547.29 397.94C548.22 397.74 549.14 397.44 550.04 397.06C547.5 396.46 545.2 394.26 544.54 391.64C544.05 389.7 544.26 387.69 544.94 385.8C545.57 384.03 546.61 382.37 547.85 380.97C550.43 378.07 553.8 376.03 556.99 373.82C559.61 372.01 562.13 370.06 564.55 368L564.54 367.99C563.66 368.72 562.76 369.46 561.84 370.18Z" stroke="white" stroke-miterlimit="10"/>
<path d="M787.17 342.09L821.83 310.51L791.42 286.47L778.49 335.55C782.44 336.77 785.48 339.12 787.17 342.09Z" stroke="white" stroke-miterlimit="10"/>
<path d="M556.53 342.1C556.53 342.07 556.53 342.05 556.53 342.02C555.64 341.3 554.62 340.74 553.49 340.42C553.48 340.42 553.47 340.42 553.46 340.41C553.46 340.45 553.47 340.49 553.48 340.53C553.84 343.97 555.13 348.11 557.86 352.59C557.01 349.17 556.58 345.64 556.53 342.1Z" stroke="white" stroke-miterlimit="10"/>
<path d="M561.54 376.7C556.55 377.82 551.97 381.9 551.6 387C551.17 392.94 556.14 397.78 560.96 401.29C565.63 404.69 570.79 407.82 576.53 408.44C577.26 408.52 578 408.55 578.74 408.53C578.7 395.37 565.64 376.84 565.2 376.22C563.96 376.27 562.74 376.43 561.54 376.7Z" stroke="white" stroke-miterlimit="10"/>
<path d="M565.21 376.21C565.65 376.83 578.71 395.37 578.75 408.52C580.79 408.46 582.84 408.02 584.71 407.23L568.85 376.32C567.62 376.2 566.41 376.16 565.21 376.21Z" stroke="white" stroke-miterlimit="10"/>
<path d="M743.92 259.83L749.41 259.69C758.84 259.45 766.27 264.02 768.72 270.98L807.81 288.56L804.22 225.11L763.98 234.64L734.22 241.69L714.16 246.44L743.92 259.83Z" stroke="white" stroke-miterlimit="10"/>
<path d="M579.13 271.02L557.34 268.79C555.24 269.41 553.04 269.63 550.95 269.35C549.22 269.12 547.59 268.53 546.2 267.65L519.14 264.88L519.17 312.97L521.02 318.95L519.17 319.76L519.18 339.57L519.19 349.81L519.2 362.64L586.36 287.2L598.95 273.05L579.13 271.02Z" stroke="white" stroke-miterlimit="10"/>
<path d="M635.97 332.05C628.71 333.55 623.34 333.16 616.27 331.35C611.13 330.04 602.18 328.26 600.04 335.25C599.02 338.57 601.12 342.25 604.12 343.98C607.12 345.72 610.78 345.89 614.24 345.59C621.09 344.99 627.73 342.56 633.47 338.8C637.23 336.34 643.7 330.46 635.97 332.05Z" stroke="white" stroke-miterlimit="10"/>
<path d="M626.42 298.34C627.95 294.64 626.58 289.96 623.57 287.41C619.77 284.19 614.13 283.87 609.42 285.5C603.93 287.41 599.51 291.91 597.33 297.28C596.29 299.83 595.76 302.58 595.86 305.34C596.07 311.08 598.78 316.56 602.66 320.8C612.05 331.06 628.71 333.71 640.83 326.9C632.75 323.9 626.29 316.71 624.33 308.3C624.19 307.69 624.09 307.15 624.02 306.65C623.54 303 624.93 301.93 626.42 298.34Z" stroke="white" stroke-miterlimit="10"/>
<path d="M516.38 369.23C513.69 364.04 508.89 360.24 503.47 357.87C502.31 357.36 501.11 356.92 499.89 356.55C495.99 355.36 491.81 354.87 487.63 355.13C489.01 353.55 490.38 351.96 491.72 350.35C494.52 347 497.26 343.51 499.56 339.82C501.6 336.55 503.28 333.12 504.33 329.47C505.45 325.55 505.77 321.31 504.3 317.75C502.27 312.84 496.95 309.99 491.53 310.14C490.81 310.16 490.09 310.23 489.37 310.35C489.49 310.27 489.6 310.19 489.72 310.1C493.1 307.61 494.41 302.68 493.1 298.76C491.45 293.81 486.56 290.46 481.45 289.38C472.66 287.51 462.91 291.95 458.54 299.8C455.62 305.06 455.07 311.44 456.25 317.34C457.63 324.27 461.52 330.52 466.82 335.18C466.39 336.64 466.02 338.11 465.72 339.59C469.51 339.51 473.37 341.09 475.98 344.42C479.16 348.49 479.87 354.18 478.46 359.15C478.05 360.6 477.46 361.97 476.76 363.29C477.71 364.32 478.64 365.36 479.52 366.43C487.7 376.4 491.44 389.89 489.55 402.64C488.54 409.45 485.94 415.99 482.1 421.7C486.68 419.65 491.16 417.39 495.44 414.71C503.36 409.74 510.6 403.16 514.93 394.97C519.26 386.78 520.33 376.84 516.38 369.23Z" stroke="white" stroke-miterlimit="10"/>
<path d="M830.51 192.06L768.72 215.05L774.2 228.6L836.57 205.44L830.51 192.06Z" stroke="white" stroke-miterlimit="10"/>
<path d="M391.79 201.81L329.99 224.8L335.47 238.36L397.84 215.2L391.79 201.81Z" stroke="white" stroke-miterlimit="10"/>
<path d="M628.61 227.91C628.25 229.44 629.18 231.06 630.5 231.92C631.82 232.78 633.45 233.01 635.03 233.07C635.19 233.08 635.36 233.07 635.53 233.07C635.82 233.07 636.11 233.08 636.4 233.08C637.97 233.22 640.46 233.91 641.27 236.74C641.27 236.74 641.27 236.74 641.27 236.75C641.45 237.67 641.85 238.55 642.4 239.3C643.37 240.62 644.76 241.58 646.23 242.32C648.29 243.36 650.61 244 652.91 243.8C655.21 243.6 657.48 242.48 658.77 240.56C660.43 238.09 660.24 234.82 661.41 232.09C661.97 230.77 662.88 229.6 663.98 228.69C664.83 227.98 665.8 227.42 666.85 227.07C668.59 226.49 670.46 226.45 672.3 226.34C674.14 226.23 676.02 226.02 677.64 225.15C679.26 224.28 680.56 222.59 680.47 220.75C680.35 218.49 678.24 216.83 676.12 216.04C672.45 214.67 668.21 215.03 664.78 216.9C664.1 217.27 663.45 217.69 662.84 218.18C660.65 219.94 658.87 222.45 656.15 223.16C654.03 223.71 651.81 223.03 649.66 222.6C645.16 221.69 640.44 221.92 636.03 223.19C634.68 223.58 633.35 224.06 632.07 224.65C630.56 225.32 628.99 226.31 628.61 227.91Z" stroke="white" stroke-miterlimit="10"/>
<path d="M538.79 243.55C535.58 243.82 532.54 245.36 530.32 247.67C529.42 248.61 528.38 249.85 527.76 251.16C524.99 252.07 521.8 254.11 520.59 256.64C519.97 257.93 520.08 259.7 521.23 260.55C522.42 261.44 524.12 261.01 525.48 260.38C526.58 259.87 527.63 259.25 528.61 258.53C530.66 257.23 532.02 257.62 532.02 257.62C532.03 257.62 532.03 257.62 532.04 257.62C532.11 257.63 532.18 257.65 532.25 257.66C534.57 258.04 537.01 257.57 539.05 256.39C541.4 255.03 543.19 252.77 544.07 250.2C544.64 248.53 544.79 246.53 543.7 245.14C542.59 243.72 540.57 243.4 538.79 243.55Z" stroke="white" stroke-miterlimit="10"/>
<path d="M557.34 268.79C558.3 268.51 559.24 268.15 560.14 267.71C561.59 266.99 562.96 266.05 563.96 264.87C565.51 264.81 567.05 264.57 568.54 264.13C570.49 263.55 572.39 262.65 573.83 261.22C575.28 259.79 576.24 257.79 576.12 255.76C575.97 253.08 573.98 250.78 571.61 249.52C571.39 249.4 571.17 249.3 570.94 249.2C571.27 248.21 571.38 247.18 571.18 246.12C570.52 242.68 566.95 240.66 563.63 239.59C561.39 238.86 559.04 238.35 556.69 238.46C554.33 238.57 551.95 239.35 550.22 240.94C547.73 243.24 546.58 247.91 547.3 251.83C545.83 252.77 544.57 253.94 543.73 255.19C541.62 258.33 541.55 262.34 543.55 265.2C544.24 266.18 545.15 267 546.21 267.67C547.6 268.54 549.23 269.14 550.96 269.37C553.04 269.63 555.25 269.41 557.34 268.79Z" stroke="white" stroke-miterlimit="10"/>
<path d="M659.99 281.45L671.86 285.27L688.01 271.42L668.42 234.54L652.01 253.2L634.41 273.22L659.99 281.45Z" stroke="white" stroke-miterlimit="10"/>
<path d="M635.32 316.59L650.78 334.68L695.04 298.04L690.55 301.76C690.38 301.12 690.24 300.48 690.13 299.82C689.4 295.45 690.03 290.73 692.49 286.83C694.84 283.1 698.89 280.42 703.28 279.33C706.99 277.2 711.49 276.31 715.63 277.14C716.78 277.37 717.9 277.75 718.95 278.25L725.56 272.78L708.97 253.47L688.02 271.43L671.86 285.28L635.32 316.59Z" stroke="white" stroke-miterlimit="10"/>
<path d="M697.37 284.87C698.81 282.59 700.89 280.7 703.29 279.32C698.89 280.41 694.85 283.09 692.5 286.82C690.04 290.72 689.41 295.44 690.14 299.81C690.25 300.47 690.39 301.11 690.56 301.75L695.05 298.03C695.04 297.97 695.02 297.91 695.01 297.85C694.27 293.49 694.91 288.77 697.37 284.87Z" stroke="white" stroke-miterlimit="10"/>
<path d="M703.29 279.33C700.89 280.71 698.81 282.59 697.37 284.88C694.91 288.78 694.28 293.5 695.01 297.87C695.02 297.93 695.04 297.99 695.05 298.05C696.9 308.54 707.04 316.89 718.35 317.22C714.18 311.99 713.03 304.63 715.5 298.26C716.98 294.44 718.43 294.52 721.44 292.49C724.17 290.65 725.35 286.99 724.45 284.09C723.64 281.49 721.53 279.49 718.95 278.26C717.9 277.76 716.78 277.38 715.63 277.15C711.49 276.3 707 277.2 703.29 279.33Z" stroke="white" stroke-miterlimit="10"/>
<path d="M557.29 403.05C554.34 401.54 551.07 400.43 547.78 400.75C545.96 400.93 544.15 401.62 542.69 402.74C538.11 405.51 536.43 404 536.02 403.46C535.98 403.4 535.95 403.35 535.91 403.29C534.65 401.44 532.39 399.95 530.4 399.21L530.39 399.2C529.93 399.02 528.63 398.52 528.2 398.36C528.11 398.32 528.02 398.27 527.93 398.23C527.32 397.84 526.64 397.5 526.08 397.25C524.92 396.57 523.8 395.83 522.75 394.98C522.08 394.44 521.43 393.86 520.67 393.48C519.91 393.1 518.99 392.93 518.2 393.25C516.94 393.76 516.37 395.36 516.59 396.73C516.81 398.1 517.63 399.27 518.47 400.35C519.35 401.47 520.29 402.53 521.27 403.57C521.37 404.01 521.47 404.47 521.54 404.98C521.54 404.98 523.76 415.52 552.71 421.39H552.72C554.12 421.71 555.54 421.87 556.97 421.8C559.99 421.65 563.05 420.4 565.03 418.03C570.95 410.9 562.9 405.91 557.29 403.05Z" stroke="white" stroke-miterlimit="10"/>
<path d="M794.6 373.48C795.86 366.03 792.09 358.85 785.79 355.41C787.18 353.8 788.15 351.84 788.51 349.67C788.97 346.94 788.45 344.34 787.17 342.09C785.48 339.12 782.44 336.78 778.49 335.55C777.65 335.29 776.78 335.07 775.87 334.91L758.74 332.02L755.67 350.22L772.86 376.53L751.87 372.73L752.49 369.08L750.05 383.53L772.51 387.32L774.64 387.68C784.03 389.26 793.01 382.87 794.6 373.48Z" stroke="white" stroke-miterlimit="10"/>
<path d="M558.39 355.28L558.37 355.22C558.38 355.24 558.39 355.26 558.39 355.28Z" stroke="white" stroke-miterlimit="10"/>
<path d="M561.84 370.18C562.76 369.46 563.66 368.72 564.55 367.97L559.3 357.75C561.53 364.06 561.92 367.98 561.84 370.18Z" stroke="white" stroke-miterlimit="10"/>
<path d="M519.18 312.97L510.54 285.12L506.49 272.06L494.53 276.47L498.85 290.61L509.11 324.17L519.18 319.76L521.03 318.95L519.18 312.97Z" stroke="white" stroke-miterlimit="10"/>
<path d="M752.49 369.08L772.86 376.53L755.67 350.22L743.45 331.52L733.48 342.4L735.54 344.2L729.84 346.37L719.95 357.18L752.49 369.08Z" stroke="white" stroke-miterlimit="10"/>
<path d="M749.41 259.69L743.92 259.83L726.41 260.28L728.18 329.42L758.33 328.65L761.19 328.58C773.79 328.26 783.84 317.68 783.52 305.08C783.26 295.08 776.54 286.71 767.48 283.83C768.88 281.38 769.64 278.59 769.56 275.68C769.52 274.03 769.21 272.46 768.7 271C766.27 264.03 758.84 259.45 749.41 259.69Z" stroke="white" stroke-miterlimit="10"/>
<path d="M631.93 369.53L624.64 382.21L615.35 378.94L621.14 360.68C617.12 359 612.66 358.4 608.27 359.02C608.48 356.03 607.92 353.02 606.51 350.26C603.15 343.7 596.25 340.6 588.58 341.53C585.73 341.88 582.78 342.76 579.86 344.26L558.41 355.27H558.4L558.12 355.41L559.31 357.73L564.56 367.95L564.57 367.96L568.85 376.3L584.71 407.21L591.65 420.74L620.15 406.12L622.85 404.73C634.76 398.62 639.51 383.87 633.39 371.96C632.95 371.12 632.45 370.31 631.93 369.53Z" stroke="white" stroke-miterlimit="10"/>
<path d="M624.64 382.22L629.69 366.47L635.14 349.46L625.63 346.5L621.14 360.69L615.35 378.95L624.64 382.22Z" stroke="white" stroke-miterlimit="10"/>
<path d="M742.18 388.78C746.17 380.46 741.8 370.88 731.82 366.1L711.71 356.46L705.23 369.99C705.65 370.66 705.96 371.42 706.1 372.27C706.47 374.51 705.68 376.88 704.16 378.56C703.07 379.77 701.57 380.58 699.98 380.93L682.73 416.91L709.1 429.55L711.6 430.75C722.62 436.03 735.96 431.34 741.24 420.32C745.43 411.57 743.32 401.38 736.77 394.9C739.07 393.4 740.96 391.33 742.18 388.78Z" stroke="white" stroke-miterlimit="10"/>
<path d="M704.16 378.56C705.68 376.88 706.48 374.51 706.1 372.27C705.96 371.41 705.65 370.66 705.23 369.99C702.91 366.24 696.91 365.44 693.57 368.64C691.96 370.19 691.07 372.47 691.27 374.7C691.47 376.93 692.76 379.04 694.68 380.18C696.26 381.13 698.18 381.33 699.98 380.93C701.57 380.58 703.07 379.77 704.16 378.56Z" stroke="white" stroke-miterlimit="10"/>
<path d="M733.48 342.4L690.02 304.46L672.27 340.46C674.81 340.21 677.36 340.47 679.71 341.42C683.96 343.13 687.05 346.85 688.78 350.94C690.17 354.23 690.71 357.82 690.47 361.37L729.84 346.36L735.54 344.19L733.48 342.4Z" stroke="white" stroke-miterlimit="10"/>
<path d="M688.78 350.94C687.06 346.85 683.96 343.13 679.71 341.42C677.36 340.47 674.81 340.21 672.27 340.46C671.85 340.5 671.42 340.55 671 340.62C669.85 338.93 668.17 337.43 666.03 336.29C661.4 333.83 655.8 334.09 651 335.88C642.19 339.31 636.07 348.68 636.46 358.13C636.63 362.22 638.42 366.77 642.26 368.13C642.01 369.16 641.87 370.21 641.86 371.25C640.83 371.93 640.01 372.85 639.56 374.13C638.75 376.39 639.12 378.9 639.8 381.2C642.99 392.12 653.29 400.58 664.62 401.58C668.07 401.89 671.57 401.56 674.95 400.77C678.62 399.91 682.28 398.42 684.84 395.66C689.67 390.43 689.07 381.64 684.69 376.03C684.6 375.91 684.5 375.81 684.41 375.69C685.06 374.99 685.66 374.27 686.2 373.51C688.74 369.93 690.19 365.69 690.48 361.39C690.71 357.83 690.17 354.23 688.78 350.94Z" stroke="white" stroke-miterlimit="10"/>
<path d="M752.49 369.08L751.87 372.73L772.86 376.53L752.49 369.08Z" stroke="white" stroke-miterlimit="10"/>
<path d="M260.88 255.32C257.66 255.69 254.3 254.95 251.29 253.94C246.21 252.23 241.63 249.08 238.04 244.98C237.77 247.96 238.07 250.97 239.05 253.75C242.35 263.18 252.89 268.81 262.3 266.17C265.51 265.27 268.93 263.26 269.99 259.67C270.69 257.31 270.42 254.38 267.91 253.87C265.79 253.43 263.01 255.07 260.88 255.32Z" stroke="white" stroke-miterlimit="10"/>
<path d="M698.45 245.75C695.23 246.12 691.87 245.38 688.86 244.37C683.78 242.66 679.2 239.51 675.61 235.41C675.34 238.39 675.64 241.4 676.62 244.18C679.93 253.61 690.46 259.24 699.87 256.6C703.08 255.7 706.5 253.69 707.56 250.1C708.26 247.74 707.99 244.81 705.48 244.3C703.37 243.86 700.58 245.5 698.45 245.75Z" stroke="white" stroke-miterlimit="10"/>
<path d="M335.97 37.78L337.52 49.99L338.46 49.05L340.02 47.5C346.89 40.68 346.93 29.48 340.12 22.61C334.71 17.16 326.55 16.02 319.97 19.19C319.46 17.09 318.42 15.13 316.84 13.54C311.7 8.36 303.39 9.06 297.17 15.24L284.64 27.68L305.52 48.72L335.97 37.78Z" stroke="white" stroke-miterlimit="10"/>
<path d="M26.4999 113.4C29.4899 114.59 32.6099 114.95 35.6099 114.6L30.9099 100.58L42.7499 95.85L47.1499 108.79C48.7299 107.12 50.0299 105.15 50.9299 102.9C53.9699 95.28 51.6099 86.8 45.7099 81.7C47.5499 80.31 49.0299 78.45 49.9199 76.23C52.8099 68.98 48.5799 61.14 39.8799 57.68L22.3599 50.69L1.35986 103.38L24.3399 112.54L26.4999 113.4Z" stroke="white" stroke-miterlimit="10"/>
<path d="M367.11 167.27C367.26 167.29 367.41 167.32 367.55 167.35C367.4 167.32 367.25 167.29 367.11 167.27Z" stroke="white" stroke-miterlimit="10"/>
<path d="M368.18 167.48C368.33 167.51 368.47 167.55 368.62 167.59C368.47 167.55 368.32 167.52 368.18 167.48Z" stroke="white" stroke-miterlimit="10"/>
<path d="M370.33 168.13C370.45 168.17 370.57 168.21 370.68 168.26C370.57 168.22 370.45 168.18 370.33 168.13Z" stroke="white" stroke-miterlimit="10"/>
<path d="M369.25 167.77C369.39 167.81 369.53 167.85 369.67 167.9C369.52 167.85 369.38 167.81 369.25 167.77Z" stroke="white" stroke-miterlimit="10"/>
<path d="M362.71 183.87C359.86 179.52 357.01 175.17 354.16 170.82C353.39 171.37 352.65 171.95 351.95 172.54C349.56 174.57 347.41 176.78 345.52 179.14L346.33 182.48L342.29 183.74C342.23 183.84 342.17 183.93 342.11 184.03C339.56 188.26 337.8 192.83 335.18 197.04C332.57 201.24 328.93 205.17 323.69 207.19C320.88 208.28 317.67 208.74 314.44 208.6C318.28 210.69 322.41 212.37 326.74 213.5C336.17 215.96 346.51 215.68 354.62 212.05C356.23 211.33 357.81 210.43 358.62 209.08C358.91 208.6 359.07 208.05 359.1 207.49C359.15 206.53 358.78 205.54 357.92 204.83C359.1 204.37 360.25 203.88 361.39 203.36C363.41 202.44 365.37 201.43 367.24 200.33C371.41 197.88 375.23 194.93 377.78 191.3C377.06 189.47 376.67 187.47 376.63 185.53C376.56 181.89 377.64 178.47 379.29 175.67L379.3 175.66C379.2 175.48 379.11 175.29 379.01 175.11C377.46 172.46 374.79 170.14 371.66 168.68C370.35 169.33 366.59 172.12 362.71 183.87Z" stroke="white" stroke-miterlimit="10"/>
<path d="M362.71 183.87C366.59 172.12 370.35 169.33 371.67 168.68C371.35 168.53 371.02 168.39 370.69 168.26C370.57 168.21 370.45 168.17 370.34 168.13C370.12 168.05 369.9 167.97 369.67 167.89C369.53 167.84 369.39 167.8 369.25 167.76C369.04 167.7 368.83 167.64 368.62 167.58C368.47 167.54 368.33 167.51 368.18 167.47C367.97 167.42 367.76 167.38 367.55 167.34C367.4 167.31 367.26 167.28 367.11 167.26C366.94 167.23 366.78 167.21 366.61 167.19L362.71 183.87Z" stroke="white" stroke-miterlimit="10"/>
<path d="M415.43 70.38L415.42 70.47C417.16 72.48 418.78 74.69 420.25 77.07C422.07 80.04 423.69 83.33 424.52 87.13C425.35 90.93 425.35 95.31 424.03 99.24C423.99 99.37 423.94 99.5 423.89 99.62C422.52 103.38 419.85 106.55 416.9 107.25C415.36 107.61 413.79 107.19 412.56 106.17C412.2 107.68 411.73 109.17 411.16 110.62C409.69 114.38 407.52 117.88 404.8 120.81C401.85 123.98 398.36 126.39 394.6 128.13L384.88 161.97L407.91 167.07C408.28 166.95 408.66 166.84 409.02 166.7C411.43 165.78 414.01 164.47 416.23 162.77L445.66 47.57L419.3 42.14L412.21 66.81C414.1 69.04 415.43 70.38 415.43 70.38Z" stroke="white" stroke-miterlimit="10"/>
<path d="M407.91 167.07C402.83 168.75 397.3 168.96 392.07 167.8C391.52 167.68 390.98 167.54 390.44 167.39C390.48 167.74 390.52 168.09 390.56 168.43C390.65 169.07 390.75 169.71 390.87 170.34C392.67 179.59 398.31 188.01 406.29 193.34C409.47 195.47 413.1 197.11 416.9 197.9C415.52 195.64 414.54 193.1 413.72 190.57C412.35 186.34 411.47 181.24 414.33 177.84C416.79 174.92 421.34 174.47 424.85 175.98C425.69 176.34 426.5 176.78 427.27 177.29C428.02 177.78 428.73 178.36 429.41 178.97L432.1 161.63L446.15 163.81C446.47 163 446.76 162.18 446.98 161.33C448.25 156.32 447.39 150.66 444.1 146.67C441.6 143.64 438.06 142.14 434.53 142.09C429.87 142.02 425.23 144.48 423.05 149.32C421.69 152.34 422.02 155.72 420.19 158.6C419.19 160.18 417.8 161.56 416.23 162.76C414.01 164.45 411.44 165.77 409.02 166.69C408.65 166.84 408.28 166.95 407.91 167.07Z" stroke="white" stroke-miterlimit="10"/>
<path d="M123.01 108.82C126.15 112.58 130.01 115.87 134.24 118.59C136.27 113.16 140.56 108.54 146 106.49C150.66 104.73 156.31 104.89 160.2 108.01C163.28 110.48 164.77 115.12 163.34 118.86C161.95 122.49 160.59 123.6 161.18 127.23C165.1 127.31 169.02 126.86 172.82 125.73C183.02 122.71 191.62 114.9 195.2 105.41C195.73 103.99 196.14 102.55 196.45 101.08L170.65 93.55L187.71 73.06C183.91 69.24 179.41 65.87 175.66 62.12C172.95 59.14 171.43 56.18 170.69 53.38C170.52 53.38 170.36 53.39 170.2 53.39C168.62 53.37 166.99 53.19 165.65 52.37C164.3 51.55 163.33 49.96 163.65 48.41C163.99 46.8 165.53 45.77 167.01 45.04C168.27 44.42 169.59 43.9 170.93 43.47C170.96 43.38 170.98 43.28 171.01 43.19C171.25 42.44 171.51 41.74 171.78 41.1C172.17 40.19 172.58 39.4 172.95 38.77C173.08 38.57 173.21 38.37 173.34 38.18C173.35 38.16 173.36 38.15 173.36 38.15C176.22 31.72 168.96 33.69 168.88 33.71C156.89 38.33 143.39 40.06 143.39 40.06L143.33 40.15C139.9 40.79 136.45 41.68 133.02 42.83C128.75 44.27 124.45 46.12 120.59 48.95C116.73 51.78 113.31 55.67 111.63 60.04C111.58 60.18 111.53 60.33 111.48 60.47C109.98 64.72 110.35 69.3 112.95 71.87C114.31 73.21 116.31 73.87 118.42 73.78C120.49 73.69 122.67 72.9 124.48 71.34C124.73 71.12 124.97 70.89 125.19 70.65C124.75 72.7 123.61 74.79 121.9 76.26C120.26 77.67 118.31 78.46 116.42 78.66C116.95 76.99 117.62 75.36 118.42 73.78C117.62 75.36 116.95 76.99 116.42 78.66C115.05 82.97 114.6 87.52 115.21 91.92C115.25 92.23 115.32 92.53 115.38 92.84L135.26 94.33L123.01 108.82Z" stroke="white" stroke-miterlimit="10"/>
<path d="M121.86 76.26C123.56 74.79 124.71 72.7 125.15 70.65C124.92 70.89 124.69 71.12 124.44 71.34C122.63 72.9 120.45 73.69 118.38 73.78C117.58 75.36 116.91 76.99 116.38 78.66C118.27 78.46 120.22 77.68 121.86 76.26Z" stroke="white" stroke-miterlimit="10"/>
<path d="M404.8 120.82C407.53 117.89 409.69 114.38 411.16 110.63C410.12 109.63 409.36 108.18 409.12 106.42C408.87 104.58 409.29 102.55 410.12 100.86C410.13 101.14 410.15 101.41 410.19 101.68C410.46 103.63 411.35 105.19 412.56 106.19C413.8 107.21 415.36 107.63 416.9 107.27C419.85 106.58 422.52 103.41 423.89 99.64C423.94 99.51 423.98 99.39 424.03 99.26C425.35 95.33 425.36 90.95 424.52 87.15C423.68 83.35 422.07 80.06 420.25 77.09C418.78 74.7 417.17 72.5 415.42 70.49L415.43 70.4C415.43 70.4 414.1 69.05 412.21 66.84C409.67 63.86 406.11 59.31 403.35 54.29C403.31 54.24 399.96 49.53 398.26 55.5C398.26 55.5 398.26 55.51 398.25 55.53C398.22 55.73 398.2 55.93 398.17 56.14C398.05 56.76 397.88 57.52 397.63 58.36C397.46 58.95 397.24 59.57 396.98 60.23C396.65 61.07 396.23 61.95 395.72 62.85C395.56 63.14 395.38 63.43 395.2 63.72C393.12 66.98 389.68 70.24 384.02 71.89C378.32 73.27 372.2 73.55 366.62 75.71C358.67 78.8 351.88 86.04 348.97 94.56C346.81 100.89 346.83 107.79 348.86 113.71C359.78 110.14 370.69 106.56 381.61 102.99L374.94 131.53C375.12 131.54 375.3 131.57 375.48 131.58C381.81 132 388.54 130.96 394.58 128.17C398.35 126.4 401.84 123.99 404.8 120.82Z" stroke="white" stroke-miterlimit="10"/>
<path d="M412.56 106.18C412.2 107.69 411.73 109.18 411.16 110.63C411.73 109.17 412.2 107.68 412.56 106.18Z" stroke="white" stroke-miterlimit="10"/>
<path d="M410.18 101.67C410.14 101.4 410.12 101.13 410.11 100.85C409.28 102.54 408.86 104.58 409.11 106.41C409.35 108.18 410.11 109.63 411.15 110.62C411.72 109.17 412.19 107.68 412.55 106.17C411.35 105.18 410.45 103.62 410.18 101.67Z" stroke="white" stroke-miterlimit="10"/>
<path d="M41.5298 161.87C39.3898 164.04 38.2598 167.19 38.6198 170.22C38.9698 173.25 40.8198 176.08 43.4698 177.57C47.5998 179.89 53.2498 178.61 56.3298 175.01C56.7998 174.46 57.2098 173.86 57.5598 173.22L57.2798 162.98C53.8498 158.22 45.8698 157.48 41.5298 161.87Z" stroke="white" stroke-miterlimit="10"/>
<path d="M63.0698 206.5C63.0098 210.18 64.8798 213.65 67.4798 215.95C69.2998 217.56 71.4298 218.66 73.6798 219.44C74.6398 219.77 75.6198 220.05 76.5998 220.28C79.9998 221.08 83.5498 221.4 86.9498 220.57C87.8798 220.34 88.7898 220.02 89.6698 219.61C87.1098 219.08 84.7598 216.94 84.0198 214.34C83.4698 212.41 83.6398 210.39 84.2598 208.49C84.8498 206.71 85.8398 205.02 87.0398 203.58C89.5398 200.61 92.8598 198.48 95.9898 196.19C97.6198 195 99.1898 193.73 100.74 192.44C100.75 190.24 100.26 186.33 97.8698 180.08L96.6198 177.79L96.8898 177.64C96.8798 177.62 96.8698 177.6 96.8698 177.58L96.8998 177.63L118.04 166.05C120.92 164.47 123.85 163.51 126.68 163.08C129.73 158.48 132.27 153.58 133.34 148.21C134.12 144.33 134.05 140.13 132.24 136.61C129.74 131.75 124.11 128.94 118.65 129.1C113.19 129.26 108.03 132.11 104.33 136.12C100.63 140.14 98.2898 145.24 96.7998 150.49C95.9998 153.32 95.4498 156.24 95.1498 159.19C94.9698 161.02 94.8798 162.86 94.9098 164.69C94.0198 163.97 92.9998 163.41 91.8698 163.09C91.8598 163.09 91.8498 163.09 91.8398 163.08C87.2298 161.82 82.5298 164.78 79.1598 168.18C74.5398 172.84 71.0298 178.6 69.0098 184.84C67.8498 188.42 67.1898 192.28 68.0798 195.93C68.2798 196.73 68.5598 197.51 68.9198 198.25C68.8498 198.26 68.7698 198.28 68.6998 198.3C65.4398 199.11 63.1298 202.82 63.0698 206.5Z" stroke="white" stroke-miterlimit="10"/>
<path d="M100.75 192.42C101.64 191.67 102.53 190.93 103.4 190.16L103.39 190.15C102.53 190.92 101.64 191.68 100.75 192.42Z" stroke="white" stroke-miterlimit="10"/>
<path d="M323.19 122.08C323.23 122.16 323.28 122.23 323.32 122.3L323.39 122.01C323.33 122.04 323.26 122.06 323.19 122.08Z" stroke="white" stroke-miterlimit="10"/>
<path d="M337.98 145.98C338.09 146.15 338.2 146.32 338.31 146.49L339.6 144.42L337.98 145.98Z" stroke="white" stroke-miterlimit="10"/>
<path d="M342.49 152.96C341.09 150.8 339.69 148.65 338.3 146.48C339.69 148.65 341.09 150.81 342.49 152.96Z" stroke="white" stroke-miterlimit="10"/>
<path d="M348.88 113.68C347.49 114.14 346.1 114.59 344.71 115.05L359.03 125.75L349.82 134.61L353.51 139.42C353.51 139.42 344.95 148.24 342.5 152.98C344.67 156.32 346.85 159.65 349.03 162.98C350.74 165.59 352.45 168.21 354.16 170.82C357.01 175.17 359.86 179.52 362.71 183.87L366.61 167.2L374.96 131.5L381.63 102.96C370.71 106.53 359.79 110.1 348.88 113.68Z" stroke="white" stroke-miterlimit="10"/>
<path d="M349.81 134.6L339.6 144.42L338.31 146.49C339.7 148.65 341.1 150.81 342.5 152.97C342.5 152.97 342.5 152.98 342.51 152.98C344.96 148.24 353.52 139.42 353.52 139.42L349.81 134.6Z" stroke="white" stroke-miterlimit="10"/>
<path d="M349.81 134.6L359.02 125.74L344.7 115.04L327.96 102.53L323.39 122.01L323.32 122.3L316.37 151.93C320.35 153.05 323.45 155.32 325.22 158.23L337.97 145.96L339.59 144.4L349.81 134.6Z" stroke="white" stroke-miterlimit="10"/>
<path d="M376.64 185.54C376.68 187.48 377.07 189.48 377.79 191.31C378.42 192.91 379.28 194.4 380.4 195.59C383.15 198.55 387.21 199.44 390.23 197.77C392.91 196.28 394.6 192.82 394.59 189.11C391.83 187.81 389.28 185.58 387.42 182.69C385.1 179.08 383.94 174.54 384.1 170.27C382.23 171.67 380.6 173.5 379.32 175.66L379.31 175.67C377.64 178.48 376.57 181.9 376.64 185.54Z" stroke="white" stroke-miterlimit="10"/>
<path d="M221.42 75.27C225.3 76.97 229.71 76.05 233.67 74.6C238.59 72.8 243.29 70.23 247.57 66.98C251.85 63.73 255.7 59.82 260.02 56.63C264.34 53.44 269.3 50.94 274.48 51.03C277.26 51.08 280.01 51.91 282.46 53.38C280.59 49.7 278.28 46.31 275.52 43.4C269.5 37.06 261.28 33.13 252.99 33.5C251.34 33.57 249.63 33.84 248.26 34.87C247.77 35.24 247.35 35.73 247.03 36.28C246.47 37.24 246.23 38.38 246.51 39.45H246.5C246.51 39.5 246.53 39.56 246.54 39.61C247.26 41.86 249.79 42.5 251.93 42.81C252.41 42.88 252.89 42.95 253.37 43.02C247.22 43.85 244.3 41.37 243 39.53C240.93 39.64 238.86 39.86 236.8 40.21C231.55 41.11 226.3 42.85 221.98 46.29C217.66 49.73 214.36 55.06 213.95 60.95C213.55 66.84 216.48 73.1 221.42 75.27Z" stroke="white" stroke-miterlimit="10"/>
<path d="M253.38 43.01C252.9 42.94 252.42 42.87 251.94 42.8C249.81 42.5 247.27 41.85 246.55 39.6C246.53 39.55 246.52 39.49 246.51 39.44C245.34 39.42 244.18 39.45 243.01 39.51C244.3 41.36 247.23 43.84 253.38 43.01Z" stroke="white" stroke-miterlimit="10"/>
<path d="M100.62 198.95C95.66 200.2 91.19 204.41 90.96 209.52C90.69 215.47 95.79 220.18 100.7 223.55C105.46 226.82 110.7 229.81 116.46 230.28C117.19 230.34 117.93 230.35 118.67 230.31C118.27 217.16 104.71 198.98 104.26 198.37C103.03 198.46 101.8 198.65 100.62 198.95Z" stroke="white" stroke-miterlimit="10"/>
<path d="M104.27 198.37C104.73 198.98 118.29 217.15 118.68 230.31C120.72 230.2 122.76 229.7 124.6 228.86L107.91 198.39C106.68 198.29 105.46 198.28 104.27 198.37Z" stroke="white" stroke-miterlimit="10"/>
<path d="M305.52 48.71L249.76 68.73L273.26 77.53L285.25 76.9C295.52 76.36 303.56 81.6 305.43 89.58L344.4 104.18L337.52 49.98L335.97 37.77L305.52 48.71Z" stroke="white" stroke-miterlimit="10"/>
<path d="M56.73 143.19L57.28 162.99L57.56 173.23L57.92 186.06L123.01 108.82L135.22 94.34L115.34 92.85L93.5 91.2C91.42 91.87 89.22 92.16 87.12 91.93C85.38 91.74 83.74 91.2 82.33 90.36L55.21 88.32L56.54 136.39L58.56 142.32L56.73 143.19Z" stroke="white" stroke-miterlimit="10"/>
<path d="M152.44 166.44C159.27 165.66 165.84 163.04 171.48 159.13C175.18 156.56 181.49 150.51 173.81 152.31C166.59 154 161.22 153.76 154.1 152.15C148.93 150.98 139.93 149.44 137.98 156.49C137.05 159.83 139.24 163.45 142.29 165.11C145.33 166.76 148.99 166.83 152.44 166.44Z" stroke="white" stroke-miterlimit="10"/>
<path d="M163.35 118.87C164.78 115.13 163.28 110.49 160.21 108.02C156.33 104.9 150.67 104.73 146.01 106.5C140.57 108.56 136.28 113.18 134.25 118.6C133.28 121.18 132.82 123.94 133 126.69C133.37 132.43 136.22 137.83 140.21 141.96C149.87 151.96 166.61 154.16 178.54 147.02C170.38 144.24 163.73 137.23 161.54 128.87C161.38 128.27 161.27 127.73 161.19 127.23C160.6 123.61 161.96 122.49 163.35 118.87Z" stroke="white" stroke-miterlimit="10"/>
<path d="M29.3399 226.82C28.5199 233.65 26.0899 240.26 22.4099 246.08C26.9299 243.9 31.3499 241.53 35.5499 238.74C43.3399 233.56 50.3899 226.78 54.4999 218.48C58.6099 210.18 59.4199 200.23 55.2599 192.72C52.4299 187.6 47.5299 183.93 42.0499 181.72C40.8799 181.25 39.6699 180.84 38.4299 180.5C34.4999 179.42 30.2999 179.04 26.1299 179.41C27.4699 177.8 28.7899 176.17 30.0899 174.52C32.7899 171.09 35.4499 167.53 37.6499 163.78C39.5999 160.46 41.1899 156.98 42.1299 153.3C43.1399 149.35 43.3499 145.1 41.7799 141.58C39.6199 136.73 34.2199 134.02 28.8099 134.32C23.3999 134.62 18.1099 137.63 14.1999 141.79C10.2899 145.95 7.63988 151.18 5.82988 156.53C4.94988 159.12 4.27988 161.78 3.79988 164.46C3.78988 169.22 4.79988 173.92 7.18988 178.03C10.0499 182.95 14.5999 186.61 18.3299 190.9C26.7899 200.63 30.8899 214.02 29.3399 226.82Z" stroke="white" stroke-miterlimit="10"/>
<path d="M295.31 48.17L278.07 26.37L271.92 32.24L289.02 53.83L295.31 48.17Z" stroke="white" stroke-miterlimit="10"/>
<path d="M345.52 179.14L339.8 155.47L331.76 158.23L338.25 185L342.29 183.74L346.33 182.48L345.52 179.14Z" stroke="white" stroke-miterlimit="10"/>
<path d="M406.24 51.58C409.04 53.15 412.87 52.28 414.96 49.85C416.33 48.25 417 46.04 416.6 43.98C415.59 38.79 408.46 37.35 404.92 40.93C403.47 42.4 402.7 44.54 402.94 46.59C403.18 48.64 404.44 50.56 406.24 51.58Z" stroke="white" stroke-miterlimit="10"/>
<path d="M163.63 48.41C163.31 49.95 164.28 51.55 165.63 52.37C166.98 53.19 168.61 53.38 170.18 53.39C170.35 53.39 170.51 53.38 170.67 53.38C170.96 53.38 171.25 53.37 171.54 53.36C173.12 53.46 175.62 54.08 176.51 56.89C176.51 56.89 176.51 56.89 176.52 56.9C176.72 57.81 177.15 58.68 177.72 59.42C178.73 60.71 180.14 61.64 181.63 62.34C183.72 63.32 186.05 63.9 188.34 63.63C190.63 63.36 192.88 62.18 194.11 60.23C195.7 57.72 195.42 54.45 196.52 51.69C197.46 49.32 199.44 47.39 201.83 46.52C203.56 45.89 205.43 45.8 207.26 45.64C209.09 45.48 210.97 45.22 212.57 44.31C214.16 43.4 215.42 41.67 215.28 39.84C215.1 37.58 212.94 35.98 210.8 35.25C206.36 33.73 201.16 34.71 197.58 37.74C195.44 39.56 193.72 42.11 191.03 42.9C188.93 43.51 186.69 42.89 184.53 42.52C180 41.74 175.3 42.09 170.92 43.48C169.58 43.91 168.26 44.42 167 45.05C165.51 45.77 163.97 46.8 163.63 48.41Z" stroke="white" stroke-miterlimit="10"/>
<path d="M57.1697 83.94C58.3897 84.8 60.0797 84.32 61.4097 83.66C62.4997 83.12 63.5297 82.47 64.4797 81.73C66.4897 80.37 67.8597 80.73 67.8597 80.73C67.8697 80.73 67.8697 80.73 67.8797 80.73C67.9497 80.74 68.0197 80.76 68.0897 80.76C70.4197 81.08 72.8497 80.54 74.8497 79.31C77.1597 77.89 78.8897 75.57 79.6997 72.98C80.2297 71.3 80.3197 69.29 79.1997 67.93C78.0597 66.55 76.0297 66.28 74.2497 66.47C71.0497 66.82 68.0497 68.45 65.8897 70.82C65.0097 71.78 64.0097 73.05 63.4197 74.38C60.6797 75.37 57.5397 77.49 56.3997 80.06C55.8397 81.36 55.9997 83.12 57.1697 83.94Z" stroke="white" stroke-miterlimit="10"/>
<path d="M93.4999 91.2C94.4499 90.89 95.3799 90.51 96.2699 90.04C97.6999 89.28 99.0499 88.3 100.01 87.09C101.56 86.99 103.09 86.71 104.57 86.23C106.51 85.6 108.37 84.64 109.78 83.18C111.19 81.71 112.1 79.69 111.92 77.66C111.69 74.99 109.64 72.74 107.24 71.55C107.02 71.44 106.79 71.34 106.56 71.24C106.87 70.25 106.95 69.2 106.71 68.15C105.96 64.73 102.34 62.81 98.9799 61.82C96.7199 61.16 94.3599 60.7 92.0099 60.87C89.6599 61.04 87.2999 61.88 85.6099 63.53C83.1899 65.9 82.1699 70.6 82.9999 74.5C81.5599 75.48 80.3299 76.69 79.5299 77.96C77.5099 81.16 77.5399 85.17 79.6199 87.97C80.3299 88.93 81.2699 89.73 82.3399 90.37C83.7499 91.21 85.3999 91.75 87.1299 91.94C89.2199 92.16 91.4199 91.88 93.4999 91.2Z" stroke="white" stroke-miterlimit="10"/>
<path d="M196.45 101.08L208.42 104.58L224.19 90.3L203.61 53.95L187.71 73.05L170.65 93.55L196.45 101.08Z" stroke="white" stroke-miterlimit="10"/>
<path d="M172.74 136.87L188.69 154.54L227.55 120.55C227.36 119.92 227.2 119.28 227.07 118.62C226.22 114.27 226.73 109.54 229.08 105.57C231.33 101.78 235.3 98.99 239.67 97.78C243.33 95.55 247.79 94.53 251.95 95.26C253.1 95.46 254.23 95.81 255.29 96.28L261.75 90.63L244.64 71.78L224.19 90.3L208.42 104.58L172.74 136.87Z" stroke="white" stroke-miterlimit="10"/>
<path d="M231.9 116.53C231.05 112.18 231.56 107.45 233.91 103.48C235.29 101.16 237.31 99.22 239.68 97.78C235.32 98.99 231.35 101.78 229.09 105.57C226.74 109.53 226.23 114.27 227.08 118.62C227.21 119.27 227.37 119.91 227.56 120.55L231.95 116.71C231.93 116.65 231.91 116.59 231.9 116.53Z" stroke="white" stroke-miterlimit="10"/>
<path d="M239.67 97.78C237.31 99.22 235.28 101.16 233.9 103.48C231.55 107.44 231.04 112.18 231.89 116.53C231.9 116.59 231.92 116.65 231.93 116.71C234.07 127.15 244.42 135.22 255.74 135.25C251.43 130.14 250.08 122.81 252.38 116.37C253.76 112.51 255.21 112.55 258.16 110.44C260.84 108.52 261.92 104.84 260.94 101.96C260.06 99.38 257.9 97.44 255.29 96.28C254.23 95.81 253.1 95.46 251.95 95.26C247.8 94.53 243.33 95.55 239.67 97.78Z" stroke="white" stroke-miterlimit="10"/>
<path d="M58.9797 217.8C57.6697 218.37 57.1097 220.08 57.3797 221.52C57.6497 222.96 58.5497 224.18 59.4697 225.29C60.4297 226.45 61.4597 227.55 62.5197 228.61C62.6397 229.07 62.7497 229.55 62.8397 230.1C62.8397 230.1 65.4897 241.18 96.2797 246.56H96.2897C97.7797 246.86 99.2897 246.99 100.8 246.87C103.99 246.62 107.19 245.21 109.21 242.65C115.29 234.95 106.62 229.9 100.61 227.03C97.4397 225.52 93.9597 224.44 90.4897 224.87C88.5697 225.11 86.6697 225.89 85.1597 227.12C80.3997 230.18 78.5797 228.63 78.1197 228.07C78.0797 228.01 78.0397 227.96 77.9997 227.9C76.6197 225.97 74.1797 224.47 72.0597 223.75L72.0497 223.74C71.5597 223.56 70.1697 223.07 69.7097 222.91C69.6097 222.87 69.5197 222.82 69.4197 222.78C68.7597 222.38 68.0297 222.04 67.4297 221.79C66.1897 221.11 64.9797 220.35 63.8497 219.49C63.1297 218.94 62.4197 218.35 61.5997 217.97C60.7797 217.59 59.8097 217.43 58.9797 217.8Z" stroke="white" stroke-miterlimit="10"/>
<path d="M381.88 37.7C384.8 40.21 388.61 41.7 392.46 41.68C395.79 41.66 399.13 40.49 401.69 38.37C401.77 38.31 401.84 38.24 401.92 38.17C401.93 38.16 401.94 38.16 401.95 38.15C401.95 38.15 403.33 36.7 406.77 36.83C408.48 37.01 410.21 37.02 411.92 36.86C414.02 36.66 416.41 35.97 417.23 34.02C418.02 32.15 416.9 29.91 415.22 28.77C411.92 26.54 406.56 26.33 402.52 27.19C400.82 26.03 398.67 25.26 396.89 24.75C392.52 23.52 387.69 23.8 383.57 25.78C381.28 26.88 379.04 28.72 378.7 31.24C378.37 33.73 379.99 36.07 381.88 37.7Z" stroke="white" stroke-miterlimit="10"/>
<path d="M348.26 55.72C348.06 56.01 347.86 56.3 347.67 56.6C345.67 59.83 344.88 64.08 346.61 67.47C347.92 70.04 350.53 71.8 353.33 72.51C356.13 73.22 359.09 72.98 361.89 72.28C364.03 71.75 366.09 70.94 368.03 69.91C370.09 70.65 372.44 70.82 374.74 70.66C379.23 70.34 383.72 68.77 387.16 66.09C390.6 63.41 392.92 59.59 393.24 55.69C393.64 50.76 390.68 45.91 385.85 43.57C383.93 42.64 381.55 42.11 379.08 42.01C377.16 36.7 372.41 31.8 367.71 30.77C364.44 30.06 360.97 30.81 358.02 32.36C355.06 33.91 352.56 36.22 350.34 38.72C347.04 42.42 344.12 47.45 345.77 52.12C346.27 53.56 347.15 54.75 348.26 55.72Z" stroke="white" stroke-miterlimit="10"/>
<path d="M291.28 186.17L311.85 193.06L291.28 186.17Z" stroke="white" stroke-miterlimit="10"/>
<path d="M316.37 151.94C315.53 151.7 314.65 151.51 313.73 151.38L296.53 148.96L293.95 167.23L311.85 193.07L290.77 189.84L289.24 200.68L311.8 203.86L313.94 204.16C323.37 205.49 332.17 198.86 333.5 189.43C334.55 181.95 330.59 174.87 324.2 171.6C325.55 169.95 326.46 167.97 326.77 165.78C327.16 163.04 326.57 160.46 325.23 158.24C323.45 155.33 320.35 153.06 316.37 151.94Z" stroke="white" stroke-miterlimit="10"/>
<path d="M97.8696 180.07C100.26 186.32 100.76 190.23 100.74 192.43L100.75 192.42C101.64 191.67 102.52 190.92 103.39 190.14L97.8696 180.07Z" stroke="white" stroke-miterlimit="10"/>
<path d="M96.8696 177.57C96.8796 177.59 96.8896 177.61 96.8896 177.63H96.8996L96.8696 177.57Z" stroke="white" stroke-miterlimit="10"/>
<path d="M30.9097 100.58L35.6197 114.6L46.7797 147.86L56.7297 143.19L58.5597 142.33L56.5397 136.4L47.1497 108.79L42.7497 95.85L30.9097 100.58Z" stroke="white" stroke-miterlimit="10"/>
<path d="M293.95 167.23L281.24 148.87L271.56 160.02L273.67 161.76L268.04 164.08L258.43 175.15L291.28 186.17L311.85 193.06L293.95 167.23Z" stroke="white" stroke-miterlimit="10"/>
<path d="M285.25 76.91L273.26 77.54L262.28 78.12L265.92 147.19L296.04 145.6L298.9 145.45C311.49 144.79 321.25 133.94 320.59 121.35C320.06 111.36 313.12 103.17 303.98 100.54C305.31 98.06 306 95.25 305.84 92.33C305.79 91.38 305.64 90.48 305.43 89.59C303.56 81.61 295.51 76.36 285.25 76.91Z" stroke="white" stroke-miterlimit="10"/>
<path d="M96.8996 177.63L96.6196 177.78L97.8696 180.07L103.39 190.15L103.4 190.16L107.91 198.38L124.6 228.85L131.91 242.19L160 226.8L162.67 225.34C174.41 218.91 178.76 204.04 172.32 192.29C171.86 191.44 171.34 190.65 170.79 189.88L163.85 202.76L154.47 199.74L159.76 181.33C155.69 179.76 151.22 179.28 146.85 180.02C146.98 177.03 146.34 174.03 144.85 171.31C141.31 164.85 134.33 161.93 126.69 163.07C123.85 163.49 120.93 164.46 118.05 166.04L96.8996 177.63Z" stroke="white" stroke-miterlimit="10"/>
<path d="M163.84 202.76L168.46 186.89L173.45 169.74L163.87 167.04L159.76 181.34L154.46 199.75L163.84 202.76Z" stroke="white" stroke-miterlimit="10"/>
<path d="M238.72 224.89C240.84 225.68 242.95 227.34 243.07 229.6C243.17 231.44 241.86 233.12 240.24 234C238.62 234.87 236.73 235.08 234.9 235.19C233.06 235.3 231.19 235.34 229.45 235.92C228.4 236.27 227.43 236.83 226.58 237.54L249.55 247.79L252.08 248.92C263.24 253.9 276.45 248.85 281.43 237.69C285.38 228.83 283 218.7 276.28 212.4C278.52 210.84 280.36 208.72 281.51 206.14C285.27 197.72 280.65 188.26 270.54 183.75L250.18 174.66L244.06 188.36C244.49 189.02 244.83 189.77 244.99 190.62C245.42 192.85 244.7 195.24 243.22 196.96C242.16 198.19 240.69 199.05 239.11 199.44L227.37 225.75C230.81 223.88 235.06 223.52 238.72 224.89Z" stroke="white" stroke-miterlimit="10"/>
<path d="M243.23 196.95C244.71 195.23 245.44 192.84 245 190.61C244.83 189.76 244.5 189.01 244.07 188.35C241.65 184.66 235.63 184.03 232.38 187.32C230.81 188.91 229.99 191.22 230.24 193.44C230.5 195.66 231.85 197.73 233.8 198.83C235.41 199.73 237.33 199.89 239.12 199.44C240.7 199.05 242.18 198.19 243.23 196.95Z" stroke="white" stroke-miterlimit="10"/>
<path d="M271.56 160.02L227.09 123.27L210.32 159.74C212.85 159.42 215.41 159.62 217.79 160.5C222.08 162.1 225.28 165.73 227.11 169.77C228.59 173.02 229.23 176.6 229.09 180.15L268.04 164.08L273.68 161.75L271.56 160.02Z" stroke="white" stroke-miterlimit="10"/>
<path d="M227.11 169.77C225.27 165.73 222.08 162.09 217.79 160.5C215.41 159.62 212.86 159.42 210.32 159.74C209.9 159.79 209.48 159.86 209.06 159.94C207.86 158.28 206.15 156.83 203.97 155.74C199.27 153.4 193.69 153.82 188.93 155.73C180.22 159.4 174.35 168.93 175 178.36C175.28 182.44 177.19 186.95 181.07 188.2C180.85 189.24 180.74 190.29 180.76 191.33C179.75 192.04 178.96 192.98 178.54 194.27C177.79 196.55 178.23 199.05 178.97 201.33C182.46 212.16 192.98 220.33 204.34 221.03C207.8 221.24 211.29 220.82 214.64 219.94C218.28 218.98 221.91 217.4 224.39 214.56C229.08 209.2 228.24 200.43 223.7 194.94C223.61 194.83 223.5 194.72 223.41 194.61C224.04 193.89 224.62 193.15 225.14 192.38C227.59 188.73 228.92 184.45 229.09 180.15C229.23 176.59 228.59 173.02 227.11 169.77Z" stroke="white" stroke-miterlimit="10"/>
<path d="M291.28 186.17L290.77 189.83L311.85 193.06L291.28 186.17Z" stroke="white" stroke-miterlimit="10"/>
<path d="M69.1 280.92L73.15 293.98C74.77 292.35 76.13 290.42 77.09 288.19C80.33 280.65 78.2 272.11 72.44 266.86C74.32 265.52 75.85 263.7 76.79 261.5C79.87 254.33 75.86 246.38 67.25 242.68L49.92 235.22L27.5 287.32L50.22 297.1L52.38 298.03C55.34 299.3 58.45 299.75 61.46 299.47L57.14 285.33L69.1 280.92Z" stroke="white" stroke-miterlimit="10"/>
<path d="M393.53 361.65C393.67 361.7 393.81 361.74 393.94 361.79C393.81 361.74 393.67 361.7 393.53 361.65Z" stroke="white" stroke-miterlimit="10"/>
<path d="M394.61 362.05C394.73 362.1 394.84 362.14 394.96 362.19C394.84 362.14 394.72 362.09 394.61 362.05Z" stroke="white" stroke-miterlimit="10"/>
<path d="M391.41 361.1C391.56 361.13 391.7 361.16 391.85 361.19C391.7 361.16 391.55 361.12 391.41 361.1Z" stroke="white" stroke-miterlimit="10"/>
<path d="M392.47 361.34C392.62 361.38 392.76 361.42 392.91 361.46C392.76 361.41 392.62 361.38 392.47 361.34Z" stroke="white" stroke-miterlimit="10"/>
<path d="M386.56 377.57C383.83 373.14 381.1 368.72 378.37 364.29C377.58 364.82 376.83 365.38 376.11 365.95C373.67 367.91 371.46 370.07 369.51 372.38L370.23 375.74L366.16 376.89C366.1 376.98 366.03 377.08 365.97 377.17C363.31 381.33 361.42 385.85 358.69 389.98C355.96 394.11 352.22 397.94 346.93 399.82C344.09 400.83 340.87 401.21 337.64 400.98C341.43 403.17 345.51 404.96 349.8 406.21C359.16 408.93 369.5 408.92 377.71 405.51C379.34 404.83 380.94 403.98 381.79 402.65C382.09 402.18 382.27 401.63 382.31 401.08C382.38 400.12 382.04 399.12 381.2 398.39C382.39 397.96 383.56 397.5 384.7 397.02C386.75 396.15 388.73 395.2 390.63 394.15C395.49 391.47 399.9 388.12 402.5 383.79C405.1 379.46 405.7 374.03 403.08 369.25C401.61 366.56 399 364.17 395.91 362.63C394.59 363.24 390.75 365.93 386.56 377.57Z" stroke="white" stroke-miterlimit="10"/>
<path d="M386.56 377.57C390.75 365.93 394.59 363.24 395.93 362.63C395.61 362.47 395.29 362.32 394.96 362.18C394.84 362.13 394.73 362.09 394.61 362.04C394.39 361.95 394.17 361.86 393.95 361.78C393.81 361.73 393.67 361.69 393.54 361.64C393.33 361.57 393.13 361.51 392.92 361.45C392.77 361.41 392.63 361.37 392.48 361.33C392.27 361.28 392.06 361.23 391.85 361.18C391.7 361.15 391.56 361.12 391.41 361.09C391.24 361.06 391.08 361.03 390.91 361L386.56 377.57Z" stroke="white" stroke-miterlimit="10"/>
<path d="M436.34 360.41L470.52 240.28L444.31 234.14L443.39 237.03C443.79 237.66 444.08 238.37 444.22 239.18C444.56 241.25 443.83 243.45 442.42 245C441.85 245.63 441.14 246.14 440.38 246.53L436.59 258.5C439.69 262.72 442.33 265.54 442.33 265.54L442.32 265.63C444.01 267.69 445.56 269.94 446.96 272.36C448.7 275.38 450.23 278.71 450.96 282.53C451.69 286.35 451.56 290.73 450.14 294.62C450.09 294.75 450.04 294.87 449.99 295C448.52 298.73 445.77 301.82 442.8 302.44C441.25 302.76 439.7 302.29 438.49 301.24C438.09 302.74 437.58 304.21 436.97 305.65C435.39 309.36 433.14 312.81 430.33 315.67C426.21 319.87 421.13 322.63 415.78 324.19L406.66 353L436.34 360.41Z" stroke="white" stroke-miterlimit="10"/>
<path d="M475.97 344.4C473.36 341.06 469.51 339.49 465.71 339.57C461.33 339.66 457.03 341.98 454.85 346.48C453.41 349.46 453.64 352.85 451.74 355.68C449.22 359.43 444.52 362.01 440.36 363.46C434.93 365.35 428.96 365.5 423.38 364.11C422.84 363.97 422.3 363.82 421.76 363.65C421.79 364 421.82 364.35 421.86 364.7C421.93 365.34 422.01 365.98 422.12 366.62C423.67 375.91 429.08 384.49 436.91 390.03C442.13 393.73 448.63 396.12 455.14 395.43C461.18 394.79 473.49 387.68 470.29 380.06C468.11 374.87 459.64 377.96 455.25 378.51C453.04 378.79 450.8 378.86 448.6 378.73C456.15 378.76 463.74 376.31 469.66 371.6C472.53 369.32 475.02 366.5 476.74 363.28C477.45 361.96 478.03 360.58 478.44 359.14C479.86 354.15 479.15 348.47 475.97 344.4Z" stroke="white" stroke-miterlimit="10"/>
<path d="M214.63 262.06C210.93 258.13 206.53 254.65 202.88 250.8C200.25 247.75 198.81 244.74 198.14 241.93C197.97 241.93 197.81 241.93 197.64 241.93C196.07 241.87 194.44 241.64 193.11 240.78C191.79 239.92 190.85 238.3 191.22 236.77C191.6 235.17 193.17 234.18 194.67 233.5C195.95 232.91 197.28 232.43 198.63 232.04C198.66 231.95 198.68 231.85 198.71 231.76C198.97 231.01 199.25 230.32 199.54 229.69C199.96 228.79 200.39 228.02 200.77 227.39C200.9 227.19 201.04 227 201.17 226.81C201.18 226.79 201.19 226.78 201.19 226.78C204.23 220.43 196.91 222.21 196.83 222.22C184.72 226.51 171.18 227.87 171.18 227.87L171.11 227.96C167.66 228.5 164.19 229.3 160.73 230.36C156.42 231.68 152.08 233.42 148.14 236.14C144.2 238.86 140.68 242.66 138.88 246.98C138.82 247.12 138.77 247.26 138.72 247.41C137.11 251.62 137.35 256.21 139.88 258.84C141.2 260.22 143.18 260.93 145.3 260.89C147.37 260.86 149.57 260.12 151.42 258.62C151.68 258.41 151.92 258.19 152.15 257.95C151.66 259.99 150.45 262.05 148.71 263.47C147.03 264.84 145.06 265.57 143.17 265.72C141.68 269.99 141.11 274.52 141.6 278.95C141.63 279.26 141.7 279.57 141.74 279.87L161.57 281.9L148.98 296.05C152.01 299.9 155.78 303.29 159.94 306.12C162.12 300.75 166.53 296.25 172.03 294.34C176.73 292.7 182.38 293.02 186.18 296.25C189.19 298.8 190.56 303.48 189.03 307.18C187.55 310.77 186.15 311.84 186.64 315.48C190.55 315.67 194.48 315.32 198.32 314.3C208.6 311.56 217.41 303.98 221.24 294.59C221.81 293.19 222.26 291.75 222.6 290.3L197.02 282.07L214.63 262.06Z" stroke="white" stroke-miterlimit="10"/>
<path d="M152.16 257.97C151.93 258.2 151.68 258.43 151.43 258.64C149.58 260.15 147.38 260.88 145.31 260.91C144.47 262.46 143.76 264.08 143.18 265.73C145.08 265.58 147.04 264.85 148.72 263.48C150.46 262.06 151.66 260 152.16 257.97Z" stroke="white" stroke-miterlimit="10"/>
<path d="M436.98 305.67C435.97 304.64 435.24 303.18 435.05 301.4C434.85 299.56 435.33 297.53 436.2 295.87C436.2 296.15 436.21 296.42 436.24 296.69C436.45 298.65 437.31 300.23 438.49 301.26C438.1 302.75 437.59 304.23 436.98 305.67ZM436.98 305.67C437.59 304.23 438.1 302.76 438.5 301.26C439.71 302.31 441.26 302.78 442.81 302.46C445.78 301.85 448.54 298.75 450 295.02C450.05 294.89 450.1 294.77 450.15 294.64C451.57 290.75 451.7 286.37 450.97 282.55C450.24 278.73 448.71 275.4 446.97 272.38C445.57 269.95 444.01 267.71 442.33 265.65L442.34 265.56C442.34 265.56 439.7 262.74 436.6 258.52C434.63 255.83 432.48 252.59 430.7 249.13C430.67 249.08 427.44 244.28 425.58 250.2C425.58 250.2 425.58 250.21 425.57 250.23C425.54 250.43 425.51 250.63 425.47 250.83C425.34 251.45 425.15 252.2 424.87 253.04C424.68 253.62 424.45 254.24 424.17 254.89C423.81 255.72 423.38 256.59 422.84 257.47C422.67 257.75 422.49 258.04 422.29 258.33C420.12 261.54 416.6 264.7 410.89 266.19C405.16 267.41 399.03 267.53 393.4 269.54C385.37 272.41 378.39 279.47 375.25 287.91C372.92 294.18 372.76 301.08 374.63 307.05C385.64 303.77 396.65 300.5 407.66 297.22L400.22 325.57C400.4 325.59 400.58 325.62 400.76 325.63C405.67 326.09 410.85 325.67 415.79 324.23C421.15 322.67 426.22 319.9 430.34 315.71C433.15 312.83 435.4 309.38 436.98 305.67Z" stroke="white" stroke-miterlimit="10"/>
<path d="M436.25 296.69C436.22 296.42 436.21 296.14 436.21 295.87C435.33 297.54 434.86 299.56 435.06 301.4C435.25 303.17 435.98 304.64 436.99 305.67C437.6 304.23 438.11 302.76 438.51 301.26C437.31 300.23 436.46 298.64 436.25 296.69Z" stroke="white" stroke-miterlimit="10"/>
<path d="M66.0997 346.88C63.8997 348.99 62.6897 352.11 62.9597 355.14C63.2297 358.18 64.9997 361.05 67.6097 362.62C71.6697 365.05 77.3497 363.92 80.5297 360.41C81.0197 359.87 81.4397 359.28 81.8097 358.66L81.7997 348.42C78.5097 343.57 70.5597 342.61 66.0997 346.88Z" stroke="white" stroke-miterlimit="10"/>
<path d="M124.46 379.03C124.53 376.83 124.15 372.91 121.93 366.6L120.74 364.28L121.02 364.14C121.01 364.12 121.01 364.1 121 364.08L121.03 364.13L142.48 353.12C145.4 351.62 148.35 350.73 151.2 350.39C154.37 345.88 157.05 341.05 158.26 335.71C159.14 331.85 159.19 327.65 157.47 324.08C155.11 319.16 149.55 316.19 144.09 316.2C138.63 316.21 133.39 318.92 129.59 322.83C125.79 326.75 123.3 331.79 121.67 337C120.79 339.81 120.16 342.71 119.79 345.65C119.56 347.46 119.43 349.28 119.4 351.1C119.05 350.82 118.69 350.58 118.31 350.35C117.72 349.98 117.09 349.67 116.41 349.46C116.4 349.46 116.39 349.45 116.38 349.45C111.81 348.06 107.03 350.9 103.57 354.2C98.8199 358.73 95.1599 364.39 92.9699 370.58C91.7199 374.12 90.9499 377.97 91.7399 381.64C91.9099 382.44 92.1799 383.23 92.5199 383.99C92.4499 384 92.3699 384.01 92.2999 384.03C88.9999 384.75 86.5899 388.39 86.4299 392.07C86.2699 395.74 88.0499 399.27 90.5799 401.64C92.3499 403.3 94.4599 404.45 96.6799 405.29C97.6299 405.65 98.5999 405.95 99.5699 406.21C102.94 407.1 106.49 407.52 109.91 406.78C110.84 406.58 111.76 406.28 112.66 405.9C110.12 405.3 107.82 403.1 107.16 400.48C106.67 398.54 106.88 396.53 107.56 394.64C108.19 392.87 109.23 391.21 110.47 389.81C113.05 386.91 116.42 384.87 119.61 382.66C122.23 380.85 124.75 378.9 127.17 376.84L127.16 376.83C126.28 377.58 125.37 378.31 124.46 379.03Z" stroke="white" stroke-miterlimit="10"/>
<path d="M367.19 346.13C365.85 343.94 364.52 341.75 363.19 339.56C364.52 341.76 365.85 343.95 367.19 346.13Z" stroke="white" stroke-miterlimit="10"/>
<path d="M362.86 339.02C362.96 339.19 363.07 339.36 363.17 339.54L364.52 337.51L362.86 339.02Z" stroke="white" stroke-miterlimit="10"/>
<path d="M348.73 314.74C348.77 314.82 348.82 314.89 348.86 314.97L348.94 314.68C348.87 314.7 348.8 314.72 348.73 314.74Z" stroke="white" stroke-miterlimit="10"/>
<path d="M374.63 307.03C373.23 307.45 371.82 307.87 370.42 308.28L384.44 319.36L375 327.96L378.56 332.87C378.56 332.87 369.77 341.46 367.19 346.13C369.27 349.53 371.36 352.92 373.45 356.31C375.09 358.97 376.73 361.63 378.37 364.29C381.1 368.72 383.83 373.14 386.56 377.57L390.91 361.01L400.22 325.55L407.66 297.2C396.65 300.48 385.64 303.75 374.63 307.03Z" stroke="white" stroke-miterlimit="10"/>
<path d="M378.56 332.88L375 327.97L364.52 337.51L363.17 339.54C363.17 339.55 363.18 339.55 363.18 339.56C364.51 341.75 365.84 343.94 367.18 346.13C367.18 346.13 367.18 346.13 367.18 346.14C369.77 341.47 378.56 332.88 378.56 332.88Z" stroke="white" stroke-miterlimit="10"/>
<path d="M375 327.97L384.44 319.37L370.42 308.29L354.03 295.33L348.93 314.68L348.85 314.97L341.1 344.41C345.05 345.64 348.09 347.99 349.78 350.95L362.86 339.03L364.52 337.52L375 327.97Z" stroke="white" stroke-miterlimit="10"/>
<path d="M422.55 380.74C420.33 377.07 419.3 372.5 419.56 368.23C417.65 369.58 415.97 371.37 414.63 373.5C412.9 376.26 411.73 379.65 411.7 383.29C411.67 386.93 412.86 390.81 415.18 393.44C417.85 396.47 421.89 397.48 424.94 395.88C427.66 394.46 429.44 391.05 429.53 387.34C426.81 385.97 424.32 383.68 422.55 380.74Z" stroke="white" stroke-miterlimit="10"/>
<path d="M124.16 385.55C119.17 386.67 114.59 390.75 114.22 395.85C113.79 401.79 118.76 406.63 123.58 410.14C128.25 413.54 133.41 416.67 139.15 417.29C139.88 417.37 140.62 417.4 141.36 417.38C141.32 404.22 128.26 385.69 127.82 385.07C126.58 385.13 125.35 385.28 124.16 385.55Z" stroke="white" stroke-miterlimit="10"/>
<path d="M127.82 385.07C128.26 385.69 141.32 404.23 141.36 417.38C143.4 417.32 145.45 416.88 147.32 416.09L131.46 385.18C130.24 385.05 129.02 385.01 127.82 385.07Z" stroke="white" stroke-miterlimit="10"/>
<path d="M366.83 233.98L321.45 244.72L296.25 250.69L276.77 255.3L306.54 268.69L312.03 268.55C321.46 268.31 328.89 272.88 331.34 279.84L370.43 297.42L366.83 233.98Z" stroke="white" stroke-miterlimit="10"/>
<path d="M141.75 279.88L119.96 277.65C117.86 278.27 115.66 278.49 113.57 278.21C111.84 277.98 110.21 277.39 108.82 276.51L81.7598 273.74L81.7898 321.83L83.6398 327.81L81.7898 328.62L81.7998 348.43L81.8098 358.67L81.8198 371.5L148.98 296.06L161.57 281.91L141.75 279.88Z" stroke="white" stroke-miterlimit="10"/>
<path d="M198.58 340.9C191.32 342.4 185.95 342.01 178.88 340.2C173.74 338.89 164.79 337.11 162.65 344.1C161.63 347.42 163.73 351.1 166.73 352.83C169.73 354.57 173.39 354.74 176.85 354.44C183.7 353.84 190.34 351.41 196.08 347.65C199.84 345.19 206.31 339.31 198.58 340.9Z" stroke="white" stroke-miterlimit="10"/>
<path d="M189.03 307.19C190.56 303.49 189.19 298.81 186.18 296.26C182.38 293.04 176.73 292.72 172.03 294.35C166.54 296.26 162.12 300.76 159.94 306.13C158.9 308.68 158.37 311.43 158.47 314.19C158.68 319.93 161.39 325.41 165.27 329.65C174.66 339.91 191.32 342.56 203.44 335.75C195.36 332.75 188.9 325.56 186.94 317.15C186.8 316.54 186.7 316 186.63 315.5C186.15 311.86 187.55 310.78 189.03 307.19Z" stroke="white" stroke-miterlimit="10"/>
<path d="M78.9897 378.08C76.2997 372.89 71.4997 369.09 66.0797 366.72C64.9197 366.21 63.7197 365.77 62.4997 365.4C58.5997 364.21 54.4197 363.72 50.2397 363.98C51.6197 362.4 52.9897 360.81 54.3297 359.2C57.1297 355.85 59.8697 352.36 62.1697 348.67C64.2097 345.4 65.8897 341.97 66.9397 338.32C68.0597 334.4 68.3797 330.16 66.9097 326.6C64.8797 321.69 59.5597 318.84 54.1397 318.99C53.4197 319.01 52.6997 319.08 51.9797 319.2C52.0997 319.12 52.2097 319.04 52.3297 318.95C55.7097 316.46 57.0197 311.53 55.7097 307.61C54.0597 302.66 49.1697 299.31 44.0597 298.23C35.2697 296.36 25.5197 300.8 21.1497 308.65C18.2297 313.91 17.6797 320.29 18.8597 326.19C20.2397 333.12 24.1297 339.37 29.4297 344.03C28.9997 345.49 28.6297 346.97 28.3197 348.46C28.1897 353.22 29.0697 357.95 31.3397 362.11C34.0597 367.1 38.5097 370.88 42.1197 375.28C50.2997 385.25 54.0397 398.74 52.1497 411.49C51.1397 418.3 48.5397 424.84 44.6997 430.55C49.2797 428.5 53.7597 426.24 58.0397 423.56C65.9697 418.59 73.1997 412.01 77.5297 403.82C81.8597 395.62 82.9397 385.7 78.9897 378.08Z" stroke="white" stroke-miterlimit="10"/>
<path d="M369.51 372.38L364.43 348.56L356.32 351.1L362.08 378.03L366.15 376.89L370.23 375.74L369.51 372.38Z" stroke="white" stroke-miterlimit="10"/>
<path d="M444.23 239.19C444.1 238.38 443.8 237.67 443.4 237.04C441.24 233.6 435.71 232.88 432.63 235.82C431.14 237.25 430.32 239.37 430.5 241.43C430.68 243.49 431.88 245.44 433.66 246.51C435.68 247.72 438.29 247.62 440.39 246.55C441.15 246.16 441.85 245.65 442.43 245.02C443.84 243.45 444.57 241.26 444.23 239.19Z" stroke="white" stroke-miterlimit="10"/>
<path d="M191.23 236.77C190.87 238.3 191.8 239.92 193.12 240.78C194.44 241.64 196.07 241.87 197.65 241.93C197.82 241.94 197.98 241.93 198.15 241.93C198.44 241.93 198.73 241.94 199.02 241.94C200.59 242.08 203.07 242.77 203.89 245.6C203.89 245.6 203.89 245.6 203.89 245.61C204.07 246.53 204.47 247.41 205.02 248.16C205.99 249.48 207.38 250.44 208.85 251.18C210.91 252.22 213.23 252.86 215.53 252.66C217.83 252.46 220.1 251.34 221.39 249.42C223.05 246.95 222.86 243.68 224.03 240.95C224.59 239.63 225.5 238.46 226.6 237.55C227.45 236.84 228.42 236.28 229.47 235.93C231.21 235.35 233.08 235.31 234.92 235.2C236.76 235.09 238.64 234.88 240.26 234.01C241.88 233.14 243.18 231.45 243.09 229.61C242.97 227.35 240.86 225.69 238.74 224.9C235.07 223.53 230.83 223.89 227.4 225.76C226.72 226.13 226.07 226.55 225.46 227.04C223.27 228.8 221.49 231.31 218.77 232.02C216.65 232.57 214.43 231.89 212.28 231.46C207.78 230.55 203.06 230.78 198.65 232.05C197.3 232.44 195.97 232.92 194.69 233.51C193.18 234.18 191.61 235.17 191.23 236.77Z" stroke="white" stroke-miterlimit="10"/>
<path d="M101.4 252.4C98.1901 252.67 95.1501 254.21 92.9301 256.52C92.0301 257.46 90.9901 258.7 90.3701 260.01C87.6001 260.92 84.4101 262.96 83.2001 265.49C82.5801 266.78 82.6901 268.55 83.8401 269.4C85.0301 270.29 86.7301 269.86 88.0901 269.23C89.1901 268.72 90.2401 268.1 91.2201 267.38C93.2701 266.08 94.6301 266.47 94.6301 266.47C94.6401 266.47 94.6401 266.47 94.6501 266.47C94.7201 266.48 94.7901 266.5 94.8601 266.51C97.1801 266.89 99.6201 266.42 101.66 265.24C104.01 263.88 105.8 261.62 106.68 259.05C107.25 257.38 107.4 255.38 106.31 253.99C105.2 252.58 103.19 252.25 101.4 252.4Z" stroke="white" stroke-miterlimit="10"/>
<path d="M119.96 277.65C120.92 277.37 121.86 277.01 122.76 276.57C124.21 275.85 125.58 274.91 126.58 273.73C128.13 273.67 129.67 273.43 131.16 272.99C133.11 272.41 135.01 271.51 136.45 270.08C137.9 268.65 138.86 266.65 138.74 264.62C138.59 261.94 136.6 259.64 134.23 258.38C134.01 258.26 133.79 258.16 133.56 258.05C133.89 257.06 134 256.03 133.8 254.97C133.14 251.53 129.57 249.51 126.24 248.44C124 247.71 121.65 247.2 119.3 247.31C116.95 247.42 114.57 248.2 112.83 249.79C110.34 252.09 109.19 256.76 109.91 260.68C108.44 261.62 107.18 262.79 106.34 264.04C104.23 267.18 104.16 271.19 106.16 274.05C106.85 275.03 107.76 275.85 108.82 276.52C110.2 277.39 111.84 277.99 113.57 278.22C115.66 278.49 117.86 278.26 119.96 277.65Z" stroke="white" stroke-miterlimit="10"/>
<path d="M231.04 243.39L214.63 262.06L197.02 282.08L222.61 290.31L234.47 294.13L250.63 280.28L231.04 243.39Z" stroke="white" stroke-miterlimit="10"/>
<path d="M271.58 262.32L250.63 280.28L234.47 294.13L197.94 325.44L213.4 343.53L253.17 310.6C253 309.96 252.86 309.32 252.75 308.66C252.02 304.29 252.65 299.57 255.11 295.67C257.46 291.94 261.51 289.26 265.9 288.17C269.61 286.04 274.11 285.15 278.25 285.98C279.39 286.21 280.52 286.59 281.57 287.09L288.18 281.62L271.58 262.32Z" stroke="white" stroke-miterlimit="10"/>
<path d="M257.62 306.71C256.89 302.34 257.52 297.62 259.98 293.72C261.42 291.44 263.5 289.55 265.9 288.17C261.5 289.26 257.46 291.94 255.11 295.67C252.65 299.57 252.02 304.29 252.75 308.66C252.86 309.32 253 309.96 253.17 310.6L257.66 306.88C257.65 306.83 257.63 306.77 257.62 306.71Z" stroke="white" stroke-miterlimit="10"/>
<path d="M265.9 288.18C263.5 289.56 261.42 291.44 259.98 293.73C257.52 297.63 256.89 302.35 257.62 306.72C257.63 306.78 257.65 306.84 257.66 306.9C259.51 317.39 269.65 325.74 280.96 326.07C276.79 320.84 275.64 313.48 278.11 307.11C279.59 303.29 281.04 303.37 284.05 301.34C286.78 299.5 287.96 295.84 287.06 292.94C286.25 290.34 284.14 288.34 281.56 287.11C280.51 286.61 279.39 286.23 278.24 286C274.11 285.16 269.62 286.05 265.9 288.18Z" stroke="white" stroke-miterlimit="10"/>
<path d="M119.9 411.91C116.95 410.4 113.68 409.29 110.39 409.61C108.57 409.79 106.76 410.48 105.3 411.6C100.72 414.37 99.04 412.86 98.63 412.32C98.59 412.26 98.56 412.21 98.52 412.15C97.26 410.3 95 408.81 93.01 408.07L93 408.06C92.54 407.88 91.24 407.38 90.81 407.22C90.72 407.18 90.63 407.13 90.54 407.09C89.93 406.7 89.25 406.36 88.69 406.11C87.53 405.43 86.41 404.69 85.36 403.84C84.69 403.3 84.04 402.72 83.28 402.34C82.52 401.96 81.6 401.79 80.81 402.11C79.55 402.62 78.98 404.22 79.2 405.59C79.42 406.96 80.24 408.13 81.08 409.21C81.96 410.33 82.9 411.39 83.88 412.43C83.98 412.87 84.08 413.33 84.15 413.84C84.15 413.84 86.37 424.38 115.32 430.25H115.33C116.73 430.57 118.15 430.73 119.58 430.66C122.6 430.51 125.66 429.26 127.64 426.89C133.57 419.76 125.51 414.77 119.9 411.91Z" stroke="white" stroke-miterlimit="10"/>
<path d="M429.71 232.99C429.72 232.98 429.73 232.98 429.74 232.97C429.74 232.97 431.16 231.56 434.6 231.78C436.3 232 438.03 232.06 439.75 231.94C441.86 231.8 444.26 231.17 445.14 229.25C445.98 227.4 444.92 225.13 443.27 223.95C440.04 221.63 434.68 221.27 430.62 222.03C428.95 220.82 426.82 219.99 425.06 219.44C420.72 218.09 415.89 218.25 411.72 220.1C409.4 221.14 407.12 222.92 406.71 225.43C406.31 227.9 407.86 230.29 409.71 231.97C412.56 234.56 416.33 236.15 420.18 236.24C423.51 236.31 426.88 235.23 429.5 233.18C429.55 233.12 429.63 233.06 429.71 232.99Z" stroke="white" stroke-miterlimit="10"/>
<path d="M373.63 260.77C374.87 263.37 377.43 265.2 380.21 265.99C382.99 266.78 385.96 266.61 388.78 266C390.93 265.53 393.01 264.78 394.98 263.79C397.02 264.58 399.37 264.82 401.66 264.72C406.16 264.52 410.69 263.07 414.2 260.48C417.71 257.89 420.13 254.14 420.56 250.25C421.09 245.33 418.26 240.4 413.5 237.94C411.61 236.96 409.24 236.36 406.77 236.2C404.99 230.84 400.38 225.81 395.71 224.66C392.47 223.86 388.98 224.52 385.98 225.99C382.98 227.46 380.42 229.71 378.13 232.14C374.73 235.75 371.68 240.69 373.2 245.41C373.67 246.87 374.51 248.08 375.6 249.08C375.39 249.36 375.18 249.65 374.99 249.94C372.89 253.12 371.99 257.34 373.63 260.77Z" stroke="white" stroke-miterlimit="10"/>
<path d="M341.11 344.4C340.27 344.14 339.4 343.92 338.49 343.76L321.36 340.87L318.29 359.07L335.48 385.38L314.49 381.58L314.89 379.2L312.67 392.38L335.13 396.17L337.26 396.53C346.65 398.11 355.63 391.73 357.21 382.34C358.47 374.89 354.7 367.71 348.4 364.27C349.79 362.66 350.76 360.7 351.12 358.53C351.58 355.8 351.06 353.2 349.78 350.95C348.09 347.98 345.05 345.63 341.11 344.4Z" stroke="white" stroke-miterlimit="10"/>
<path d="M124.46 379.03C125.37 378.31 126.28 377.57 127.17 376.82L121.92 366.6C124.15 372.91 124.53 376.84 124.46 379.03Z" stroke="white" stroke-miterlimit="10"/>
<path d="M121.01 364.14L120.99 364.08C120.99 364.1 121 364.12 121.01 364.14Z" stroke="white" stroke-miterlimit="10"/>
<path d="M81.7896 321.83L73.1497 293.97L69.0996 280.92L57.1396 285.32L61.4697 299.46L71.7297 333.02L81.7997 328.62L83.6497 327.81L81.7896 321.83Z" stroke="white" stroke-miterlimit="10"/>
<path d="M335.47 385.38L318.28 359.07L306.07 340.37L296.1 351.26L298.16 353.06L292.46 355.23L282.56 366.03L315.1 377.93L335.47 385.38Z" stroke="white" stroke-miterlimit="10"/>
<path d="M312.02 268.55L306.53 268.69L289.02 269.14L290.79 338.28L320.94 337.51L323.8 337.44C336.4 337.12 346.45 326.54 346.13 313.94C345.87 303.94 339.15 295.57 330.09 292.69C331.49 290.24 332.25 287.45 332.17 284.54C332.13 282.89 331.82 281.32 331.31 279.86C328.89 272.88 321.46 268.31 312.02 268.55Z" stroke="white" stroke-miterlimit="10"/>
<path d="M194.54 378.39L187.25 391.07L177.96 387.8L183.75 369.54C179.73 367.86 175.27 367.26 170.88 367.88C171.09 364.89 170.53 361.88 169.12 359.12C165.76 352.56 158.86 349.46 151.19 350.39C148.34 350.74 145.39 351.62 142.47 353.12L121.02 364.13H121.01L120.73 364.27L121.92 366.59L127.17 376.81L127.18 376.82L131.46 385.16L147.32 416.07L154.26 429.6L182.76 414.98L185.46 413.59C197.37 407.48 202.12 392.73 196 380.82C195.57 379.98 195.07 379.17 194.54 378.39Z" stroke="white" stroke-miterlimit="10"/>
<path d="M187.25 391.07L194.54 378.39L194.55 378.37C193.88 377.24 193.12 376.26 192.3 375.33L187.25 391.07Z" stroke="white" stroke-miterlimit="10"/>
<path d="M187.25 391.07L192.3 375.33L197.76 358.32L188.25 355.36L183.75 369.54L177.96 387.8L187.25 391.07Z" stroke="white" stroke-miterlimit="10"/>
<path d="M304.8 397.63C308.79 389.31 304.42 379.73 294.44 374.95L274.33 365.31L267.85 378.84C268.27 379.51 268.58 380.27 268.72 381.12C269.09 383.36 268.3 385.73 266.78 387.41C265.69 388.62 264.19 389.43 262.6 389.78L245.35 425.76L271.72 438.4L274.22 439.6C285.24 444.88 298.58 440.19 303.86 429.17C308.05 420.42 305.94 410.23 299.39 403.75C301.69 402.25 303.58 400.18 304.8 397.63Z" stroke="white" stroke-miterlimit="10"/>
<path d="M266.78 387.42C268.3 385.74 269.1 383.37 268.72 381.13C268.58 380.27 268.27 379.52 267.85 378.85C265.53 375.1 259.53 374.3 256.19 377.5C254.58 379.05 253.69 381.33 253.89 383.56C254.09 385.79 255.38 387.9 257.3 389.04C258.88 389.99 260.8 390.19 262.6 389.79C264.19 389.44 265.68 388.62 266.78 387.42Z" stroke="white" stroke-miterlimit="10"/>
<path d="M296.1 351.26L252.64 313.32L234.89 349.32C237.43 349.07 239.98 349.33 242.33 350.28C246.58 351.99 249.67 355.71 251.4 359.8C252.79 363.09 253.33 366.68 253.09 370.23L292.46 355.22L298.16 353.05L296.1 351.26Z" stroke="white" stroke-miterlimit="10"/>
<path d="M251.39 359.8C249.66 355.71 246.57 351.99 242.32 350.28C239.97 349.33 237.42 349.07 234.88 349.32C234.46 349.36 234.03 349.41 233.61 349.48C232.46 347.79 230.78 346.29 228.64 345.15C224.01 342.69 218.41 342.95 213.61 344.74C204.8 348.17 198.68 357.54 199.07 366.99C199.24 371.08 201.03 375.63 204.87 376.99C204.62 378.02 204.48 379.07 204.47 380.11C203.44 380.79 202.62 381.71 202.17 382.99C201.36 385.25 201.73 387.76 202.41 390.06C205.6 400.98 215.9 409.44 227.23 410.44C230.68 410.75 234.18 410.42 237.56 409.63C241.23 408.77 244.89 407.28 247.45 404.52C252.28 399.29 251.68 390.5 247.3 384.89C247.21 384.77 247.11 384.67 247.02 384.55C247.67 383.85 248.27 383.13 248.81 382.37C251.36 378.79 252.8 374.55 253.09 370.25C253.33 366.68 252.78 363.09 251.39 359.8Z" stroke="white" stroke-miterlimit="10"/>
<path d="M335.47 385.38L315.1 377.93L314.89 379.2L314.49 381.58L335.47 385.38Z" stroke="white" stroke-miterlimit="10"/>
<path d="M427.26 177.31C426.48 176.8 425.67 176.36 424.84 176C421.34 174.49 416.78 174.95 414.32 177.86C411.46 181.26 412.34 186.36 413.71 190.59C414.53 193.12 415.51 195.66 416.89 197.92C417.75 199.33 418.76 200.62 419.98 201.73C420.39 202.1 420.82 202.44 421.28 202.75C427.02 194.79 427.25 177.87 427.26 177.31Z" stroke="white" stroke-miterlimit="10"/>
<path d="M429.4 178.99C428.72 178.38 428.01 177.8 427.26 177.31C427.25 177.88 427.02 194.79 421.28 202.76C422.54 203.62 423.97 204.25 425.44 204.59L429.4 178.99Z" stroke="white" stroke-miterlimit="10"/>
<path d="M470.48 202.51L460.52 206.97L456.34 200.92L467.84 192.43C466.15 189.66 463.72 187.34 460.79 185.79C462.23 184.08 463.21 182.01 463.57 179.73C464.72 172.28 459.04 165.81 450.1 164.43L446.14 163.82L432.09 161.64L429.4 178.98L425.44 204.58L423.7 215.79L447.32 219.45L449.56 219.8C456.5 220.87 463.15 217.81 467.03 212.48C468.67 210.22 469.83 207.57 470.28 204.63C470.4 203.92 470.45 203.21 470.48 202.51Z" stroke="white" stroke-miterlimit="10"/>
<path d="M456.34 200.93L460.52 206.98L470.47 199.68L481.21 191.8L476.77 185.85L467.84 192.44L456.34 200.93Z" stroke="white" stroke-miterlimit="10"/>
</svg>
